<svg width="14" height="12" viewBox="0 0 14 12" fill="none" xmlns="http://www.w3.org/2000/svg">
<path d="M4.82555 0.747742L5.26456 2.59996C5.41109 3.21506 5.7254 3.77747 6.17251 4.22458C6.61963 4.6717 7.18203 4.98601 7.79714 5.13254L9.6511 5.57329L7.79714 6.0123C7.18203 6.15883 6.61963 6.47314 6.17251 6.92025C5.7254 7.36737 5.41109 7.92977 5.26456 8.54488L4.82555 10.3988L4.3848 8.54488C4.239 7.92943 3.92494 7.36663 3.4777 6.9194C3.03047 6.47216 2.46767 6.15809 1.85221 6.0123L0 5.57329L1.85221 5.13254C2.46767 4.98675 3.03047 4.67268 3.4777 4.22544C3.92494 3.77821 4.239 3.21541 4.3848 2.59996L4.82555 0.747742Z" fill="url(#paint0_linear_2_935)"/>
<path d="M11.338 0.191406L11.5181 0.949251C11.578 1.2005 11.7065 1.43017 11.8892 1.61269C12.0719 1.79522 12.3017 1.92343 12.5529 1.98306L13.3098 2.16252L12.5529 2.34268C12.3014 2.4022 12.0714 2.53056 11.8886 2.71339C11.7059 2.89622 11.5776 3.12631 11.5181 3.37793L11.338 4.13506L11.1586 3.37793C11.0988 3.12642 10.9705 2.89645 10.7877 2.71365C10.605 2.53086 10.3751 2.40243 10.1237 2.34268L9.36613 2.16252L10.1237 1.98306C10.375 1.92309 10.6048 1.79459 10.7875 1.61183C10.9702 1.42907 11.0986 1.19922 11.1586 0.94782L11.338 0.191406Z" fill="url(#paint1_linear_2_935)"/>
<path d="M11.338 7.09015L11.5181 7.84799C11.578 8.09924 11.7065 8.32891 11.8892 8.51143C12.0719 8.69396 12.3017 8.82217 12.5529 8.88181L13.3098 9.06126L12.5529 9.24143C12.3014 9.30095 12.0714 9.4293 11.8886 9.61213C11.7059 9.79496 11.5776 10.0251 11.5181 10.2767L11.338 11.0338L11.1586 10.2767C11.0988 10.0252 10.9705 9.79519 10.7877 9.6124C10.605 9.4296 10.3751 9.30117 10.1237 9.24143L9.36613 9.06126L10.1237 8.88181C10.375 8.82183 10.6048 8.69333 10.7875 8.51057C10.9702 8.32782 11.0986 8.09796 11.1586 7.84656L11.338 7.09015Z" fill="url(#paint2_linear_2_935)"/>
<defs>
<linearGradient id="paint0_linear_2_935" x1="9.6511" y1="5.57329" x2="0" y2="5.57329" gradientUnits="userSpaceOnUse">
<stop offset="1" stop-color="#1A9CEC"/>
</linearGradient>
<linearGradient id="paint1_linear_2_935" x1="13.3098" y1="2.16323" x2="9.36613" y2="2.16323" gradientUnits="userSpaceOnUse">
<stop offset="1" stop-color="#1A9CEC"/>
</linearGradient>
<linearGradient id="paint2_linear_2_935" x1="13.3098" y1="9.06197" x2="9.36613" y2="9.06197" gradientUnits="userSpaceOnUse">
<stop offset="1" stop-color="#1A9CEC"/>
</linearGradient>
</defs>
</svg>
