<svg width="15" height="16" viewBox="0 0 15 16" fill="none" xmlns="http://www.w3.org/2000/svg">
<path d="M5.56367 12.8669C5.41995 12.8707 5.29388 12.7648 5.27371 12.6198C5.25227 12.4685 5.35439 12.3286 5.50316 12.2996C5.33926 11.3704 4.89171 10.8586 4.41895 10.3177C4.05082 9.89666 3.66882 9.45919 3.36751 8.81497C3.07125 8.18083 2.90862 7.52527 2.91366 6.84448C2.91996 6.1637 3.09268 5.46274 3.46837 4.73784C3.47089 4.73279 3.47341 4.72901 3.47593 4.72397C3.96887 3.88938 4.65848 3.33215 5.42625 3.01949C6.07048 2.756 6.77017 2.66649 7.45599 2.72953C8.1393 2.79256 8.80874 3.00688 9.39371 3.35232C10.1375 3.7923 10.749 4.44535 11.0856 5.26986C11.2671 5.71615 11.3907 6.21413 11.4058 6.76001C11.4209 7.30338 11.3276 7.88961 11.0768 8.50988C10.7414 9.34069 10.2976 9.85632 9.88286 10.3392C9.50087 10.7842 9.14535 11.1977 8.94742 11.8318C9.05962 11.8583 9.14787 11.9504 9.16552 12.0714C9.18695 12.2277 9.07727 12.3727 8.92094 12.3941L8.82386 12.408C8.80622 12.5454 8.79487 12.6929 8.78983 12.8505L8.82134 12.8455C8.97767 12.824 9.12265 12.9337 9.14408 13.09C9.16552 13.2464 9.05584 13.3913 8.89951 13.4128L8.80117 13.4266C8.80243 13.4456 8.80369 13.4645 8.80495 13.4834C8.81378 13.5943 8.81504 13.7015 8.80874 13.8036L8.82513 13.8011C8.98271 13.7822 9.12518 13.8944 9.14535 14.0507C9.16426 14.2083 9.05205 14.3507 8.89573 14.3709L8.68393 14.3974C8.53264 14.7895 8.26285 15.087 7.94389 15.2723C7.72453 15.3997 7.48121 15.4728 7.23663 15.4879C6.98827 15.503 6.73739 15.4564 6.50794 15.3454C6.24571 15.2169 6.01122 15.0038 5.84103 14.6974C5.75908 14.6558 5.69857 14.5752 5.68596 14.4768C5.68092 14.4377 5.6847 14.3999 5.69478 14.3646C5.64562 14.2184 5.60779 14.0583 5.5851 13.8818L5.57628 13.883C5.41995 13.9045 5.27497 13.7948 5.25353 13.6384C5.2321 13.4821 5.34178 13.3371 5.49811 13.3157L5.56619 13.3056C5.57123 13.1518 5.56997 13.0056 5.56367 12.8669ZM8.37253 5.08579C8.44565 5.08705 8.52003 5.10092 8.5919 5.12487C8.74318 5.17656 8.88816 5.27616 9.00036 5.40853C9.11257 5.54217 9.19325 5.70984 9.21342 5.89643C9.22225 5.97837 9.21973 6.06284 9.20334 6.14983C9.2815 6.22169 9.34706 6.30112 9.39623 6.38684C9.47691 6.52426 9.51852 6.67681 9.51347 6.83188C9.50843 6.9882 9.458 7.14453 9.35084 7.28825C9.28655 7.37524 9.20208 7.45719 9.09618 7.53157C9.10374 7.76354 9.0344 7.97282 8.9222 8.13419C8.79739 8.31447 8.61837 8.43928 8.43052 8.47836C8.38514 8.64099 8.27546 8.78471 8.13678 8.88431C7.95524 9.01416 7.71822 9.07468 7.50138 9.01542C7.35262 8.97508 7.21646 8.88053 7.11812 8.71916C6.99962 8.89818 6.84329 8.99399 6.6794 9.02803C6.47012 9.07216 6.25328 9.00786 6.08939 8.88053C5.96331 8.78219 5.8675 8.64478 5.82968 8.48845C5.76917 8.48341 5.70739 8.4708 5.64814 8.45063C5.50063 8.4002 5.35817 8.30438 5.24849 8.17579C5.13755 8.0472 5.0556 7.88583 5.03039 7.70555C5.01778 7.61604 5.01904 7.52148 5.03795 7.42567C4.96988 7.36263 4.91188 7.29203 4.86398 7.21513C4.77951 7.07771 4.7316 6.92265 4.73412 6.76254C4.73664 6.60117 4.78707 6.43853 4.89802 6.28725C4.95979 6.20278 5.04174 6.1221 5.14385 6.04771C5.14259 6.0225 5.14259 5.99729 5.14385 5.97333C5.15268 5.73884 5.23841 5.53334 5.36322 5.3808C5.367 5.37702 5.36952 5.37323 5.3733 5.36945C5.49811 5.22195 5.66074 5.12361 5.82968 5.09462C5.83598 5.07192 5.84229 5.05049 5.84985 5.0278C5.9091 4.86895 6.02887 4.73279 6.17637 4.64707C6.32514 4.56008 6.50416 4.52226 6.67814 4.55882C6.83447 4.59159 6.98449 4.6811 7.10047 4.845C7.21646 4.6811 7.36648 4.59159 7.52281 4.55882C7.68166 4.52604 7.84429 4.55377 7.98423 4.62437C8.12165 4.69371 8.24016 4.80591 8.31202 4.93955C8.33975 4.98746 8.35992 5.03536 8.37253 5.08579ZM8.42044 8.11276C8.4986 8.07998 8.57424 8.01694 8.63224 7.93247C8.71418 7.81271 8.76083 7.6526 8.73814 7.47232L8.73688 7.46727V7.46349C8.72805 7.39541 8.75957 7.32481 8.82261 7.28699C8.93229 7.2227 9.01171 7.1521 9.06718 7.07645C9.1277 6.99325 9.15795 6.90626 9.16047 6.82053C9.163 6.73354 9.13778 6.64655 9.08988 6.5646C9.04575 6.48896 8.98271 6.41962 8.90581 6.36037C8.84025 6.31751 8.81 6.2343 8.83647 6.15614C8.86295 6.07797 8.86925 6.00359 8.86169 5.93173C8.84908 5.82079 8.79991 5.71867 8.73057 5.63546C8.65997 5.55226 8.57046 5.49048 8.47969 5.45896C8.44061 5.44636 8.40153 5.43879 8.36497 5.43879C8.33723 5.522 8.29185 5.6052 8.22377 5.68589C8.16073 5.76027 8.04979 5.77036 7.97541 5.70732C7.90103 5.64429 7.89094 5.53334 7.95398 5.45896C8.05735 5.33667 8.05861 5.20808 8.0044 5.10849C7.96658 5.03789 7.90355 4.97863 7.82916 4.94207C7.7573 4.90551 7.67662 4.89038 7.59972 4.90677C7.48751 4.92946 7.37909 5.02402 7.30849 5.22069V8.20857C7.32236 8.22874 7.33118 8.25143 7.33497 8.27791C7.37531 8.52501 7.47995 8.64351 7.59719 8.67629C7.70562 8.70655 7.83169 8.66999 7.93254 8.59813C8.03088 8.52753 8.10148 8.42541 8.10274 8.31825C8.104 8.19596 8.01071 8.05602 7.76235 7.92869C7.67536 7.88457 7.64006 7.77741 7.68418 7.69042C7.72831 7.60343 7.83547 7.56813 7.92246 7.61225C8.2036 7.75471 8.3574 7.93247 8.42044 8.11276ZM5.84607 5.45518C5.77421 5.47913 5.70361 5.5283 5.64436 5.59638C5.64183 5.60016 5.63931 5.60268 5.63679 5.6052C5.55611 5.70354 5.50189 5.83465 5.49559 5.98594C5.49433 6.02628 5.49559 6.06915 5.50189 6.11327C5.51072 6.18009 5.48046 6.24943 5.41995 6.28851C5.31405 6.35407 5.23589 6.42467 5.18167 6.49905C5.11612 6.5873 5.08712 6.68059 5.08586 6.76884C5.0846 6.85961 5.11234 6.94912 5.16276 7.03107C5.20563 7.10041 5.26362 7.16344 5.33548 7.21639C5.39978 7.26052 5.42877 7.34246 5.40356 7.41937C5.37582 7.50257 5.36952 7.58326 5.37961 7.6589C5.39473 7.76732 5.44516 7.86566 5.5145 7.94634C5.58384 8.02703 5.67083 8.08628 5.76034 8.11654C5.78934 8.12662 5.81833 8.13293 5.84607 8.13545C5.91036 7.9476 6.07174 7.76228 6.36548 7.61225C6.45247 7.56813 6.55837 7.60217 6.60376 7.68916C6.64788 7.77615 6.61384 7.88205 6.52685 7.92743C6.26336 8.06107 6.16503 8.21235 6.16503 8.34347C6.16503 8.44306 6.22302 8.53761 6.30749 8.60317C6.39322 8.66999 6.50416 8.70403 6.60754 8.6826C6.73739 8.65612 6.86346 8.53257 6.93028 8.26278C6.93406 8.24513 6.94163 8.22874 6.95045 8.21361V5.37576C6.94667 5.36945 6.94289 5.36189 6.9391 5.35432L6.93784 5.3518L6.93658 5.34928L6.93532 5.34676V5.3455V5.34424L6.93406 5.34172V5.34046V5.33919C6.9328 5.33415 6.93154 5.32911 6.93028 5.32407C6.86346 5.05554 6.73739 4.93325 6.60754 4.90677C6.52307 4.88912 6.4323 4.90929 6.3554 4.95468C6.27723 5.00006 6.2142 5.07066 6.18394 5.15135C6.14486 5.25725 6.16881 5.38836 6.30371 5.51317C6.37557 5.57999 6.37935 5.69093 6.31379 5.76279C6.24697 5.83465 6.13603 5.83844 6.06417 5.77288C5.95449 5.6695 5.88389 5.56234 5.84607 5.45518ZM5.88263 6.03889C5.95197 5.97081 6.06417 5.97081 6.13351 6.04141C6.20159 6.11075 6.20159 6.22295 6.13099 6.29229C6.0087 6.41206 5.9444 6.56839 5.9381 6.72598C5.9318 6.88987 5.98475 7.0588 6.09695 7.19748C6.15872 7.27312 6.14612 7.38533 6.07048 7.44584C5.99483 7.50762 5.88263 7.49501 5.82212 7.41937C5.65444 7.21135 5.57502 6.95921 5.5851 6.71211C5.59393 6.46627 5.69226 6.22547 5.88263 6.03889ZM7.99684 6.22547C7.91741 6.16748 7.89976 6.0578 7.95776 5.97837C8.01575 5.89895 8.12543 5.8813 8.20486 5.93929C8.23511 5.96199 8.26411 5.98468 8.29059 6.00863C8.48978 6.18891 8.59946 6.42593 8.61963 6.67176C8.6398 6.91508 8.57172 7.16596 8.41792 7.3765C8.41539 7.38028 8.41161 7.38533 8.40783 7.38911C8.3864 7.41811 8.36497 7.44332 8.3448 7.46727C8.27924 7.54039 8.16704 7.54544 8.09391 7.47988C8.02079 7.41432 8.01575 7.30212 8.08131 7.229C8.0977 7.21009 8.11156 7.1937 8.12417 7.17731C8.12669 7.17353 8.12795 7.17101 8.13048 7.16722C8.23259 7.02602 8.27798 6.85961 8.26537 6.69824C8.25276 6.53939 8.18216 6.38685 8.05357 6.27086C8.03592 6.25573 8.01701 6.2406 7.99684 6.22547ZM0.274993 7.42063C0.12749 7.42441 0.00520125 7.30968 0.000158408 7.16218C-0.00488443 7.01468 0.111101 6.89239 0.258604 6.88735L1.35542 6.84953C1.50292 6.84448 1.62521 6.96047 1.63026 7.10797C1.6353 7.25547 1.51931 7.37776 1.37181 7.38281L0.274993 7.42063ZM13.9537 6.33516C14.0999 6.32003 14.231 6.42719 14.2462 6.57343C14.2613 6.71967 14.1541 6.85079 14.0079 6.86591L12.9161 6.98064C12.7699 6.99577 12.6388 6.88861 12.6236 6.74236C12.6085 6.59612 12.7157 6.46501 12.8619 6.44988L13.9537 6.33516ZM11.9656 1.86342C12.0475 1.74113 12.2127 1.70835 12.3349 1.7903C12.4572 1.87224 12.49 2.0374 12.4081 2.15969L11.7979 3.07244C11.7159 3.19473 11.5508 3.22751 11.4285 3.14556C11.3062 3.06361 11.2734 2.89846 11.3554 2.77617L11.9656 1.86342ZM7.26563 0.259796C7.26941 0.112293 7.3917 -0.0036922 7.53794 8.99272e-05C7.68544 0.00387206 7.80143 0.126161 7.79765 0.272403L7.76991 1.36922C7.76613 1.51672 7.64384 1.63271 7.4976 1.62893C7.3501 1.62514 7.23411 1.50286 7.23789 1.35661L7.26563 0.259796ZM1.75002 1.95797C1.6416 1.85712 1.63656 1.68818 1.73616 1.58102C1.83701 1.4726 2.00595 1.46756 2.11311 1.56715L2.91618 2.31601C3.0246 2.41687 3.02964 2.58581 2.93005 2.69297C2.82919 2.80139 2.66026 2.80643 2.5531 2.70683L1.75002 1.95797ZM6.03644 12.2227L8.36749 11.8924C8.56794 11.0477 9.00415 10.5396 9.47691 9.99121C9.86521 9.53988 10.2787 9.05829 10.5813 8.30943C10.8032 7.76102 10.8851 7.24665 10.8725 6.77262C10.8599 6.29986 10.7515 5.86365 10.5901 5.46905C10.3002 4.75927 9.7694 4.19447 9.12265 3.81121C8.6045 3.50486 8.01323 3.3145 7.40935 3.26029C6.80799 3.20481 6.19402 3.28424 5.62797 3.51495C4.96483 3.786 4.36852 4.26759 3.93988 4.9925C3.60705 5.63798 3.45324 6.25573 3.4482 6.84953C3.44316 7.4471 3.58814 8.02577 3.85163 8.5893C4.12016 9.16419 4.4782 9.57266 4.82111 9.966C5.35439 10.5774 5.85994 11.1561 6.03644 12.2227ZM8.27294 12.4836L6.09569 12.7925C6.10199 12.9312 6.10451 13.0762 6.10199 13.23L8.2515 12.9249C8.25402 12.7698 8.26033 12.6223 8.27294 12.4836ZM6.11334 13.8074C6.12847 13.9234 6.15116 14.0293 6.18016 14.1276L8.26663 13.8704C8.2805 13.762 8.28302 13.6473 8.27294 13.525V13.5225L8.27167 13.501L6.11334 13.8074ZM6.47642 14.6697C6.55711 14.7542 6.64662 14.8197 6.74117 14.8651C6.88615 14.9357 7.04626 14.9647 7.20385 14.9559C7.36522 14.9458 7.52786 14.8966 7.67536 14.8109C7.81404 14.7302 7.93885 14.618 8.03844 14.4768L6.47642 14.6697Z" fill="#FDC822"/>
</svg>
