<svg width="74" height="15" viewBox="0 0 74 15" fill="none" xmlns="http://www.w3.org/2000/svg">
<path d="M3.97301 12.0057V2.95455H6.26136V12.0057H3.97301ZM0.591619 8.62429V6.33594H9.64276V8.62429H0.591619ZM28.0886 5.49219H25.2889C25.2377 5.12997 25.1333 4.80824 24.9757 4.52699C24.818 4.24148 24.6156 3.99858 24.3684 3.7983C24.1213 3.59801 23.8358 3.4446 23.5119 3.33807C23.1923 3.23153 22.845 3.17827 22.47 3.17827C21.7924 3.17827 21.2022 3.34659 20.6994 3.68324C20.1966 4.01562 19.8066 4.50142 19.5297 5.14062C19.2527 5.77557 19.1142 6.54687 19.1142 7.45455C19.1142 8.38778 19.2527 9.17187 19.5297 9.80682C19.8109 10.4418 20.2029 10.9212 20.7058 11.245C21.2086 11.5689 21.7903 11.7308 22.4508 11.7308C22.8216 11.7308 23.1646 11.6818 23.4799 11.5838C23.7995 11.4858 24.0829 11.343 24.3301 11.1555C24.5772 10.9638 24.7818 10.7315 24.9437 10.4588C25.1099 10.1861 25.225 9.875 25.2889 9.52557L28.0886 9.53835C28.0162 10.1392 27.8351 10.7188 27.5453 11.277C27.2598 11.831 26.8741 12.3274 26.3883 12.7663C25.9068 13.201 25.3315 13.5462 24.6625 13.8018C23.9977 14.0533 23.2456 14.179 22.4061 14.179C21.2385 14.179 20.1944 13.9148 19.274 13.3864C18.3578 12.858 17.6333 12.093 17.1007 11.0916C16.5723 10.0902 16.3081 8.87784 16.3081 7.45455C16.3081 6.02699 16.5765 4.8125 17.1135 3.81108C17.6504 2.80966 18.3791 2.04687 19.2995 1.52273C20.22 0.994318 21.2555 0.730113 22.4061 0.730113C23.1646 0.730113 23.8677 0.836647 24.5154 1.04972C25.1674 1.26278 25.7449 1.57386 26.2477 1.98295C26.7505 2.38778 27.1596 2.88423 27.475 3.4723C27.7946 4.06037 27.9991 4.73366 28.0886 5.49219ZM30.0222 14V4.18182H32.6621V5.89489H32.7644C32.9434 5.28551 33.2438 4.82528 33.6657 4.5142C34.0875 4.19886 34.5733 4.04119 35.123 4.04119C35.2594 4.04119 35.4064 4.04972 35.5641 4.06676C35.7218 4.08381 35.8603 4.10724 35.9796 4.13707V6.55327C35.8517 6.51491 35.6749 6.48082 35.449 6.45099C35.2232 6.42116 35.0165 6.40625 34.829 6.40625C34.4284 6.40625 34.0705 6.49361 33.7551 6.66832C33.4441 6.83878 33.1969 7.07741 33.0137 7.38423C32.8347 7.69105 32.7452 8.04474 32.7452 8.44531V14H30.0222ZM41.4048 14.1918C40.3949 14.1918 39.5256 13.9872 38.7969 13.5781C38.0724 13.1648 37.5142 12.581 37.1222 11.8267C36.7301 11.0682 36.5341 10.1712 36.5341 9.13565C36.5341 8.12571 36.7301 7.23935 37.1222 6.47656C37.5142 5.71378 38.0661 5.11932 38.7777 4.69318C39.4936 4.26705 40.3331 4.05398 41.2962 4.05398C41.9439 4.05398 42.5469 4.15838 43.1051 4.36719C43.6676 4.57173 44.1577 4.88068 44.5753 5.29403C44.9972 5.70739 45.3253 6.22727 45.5597 6.85369C45.794 7.47585 45.9112 8.20455 45.9112 9.03977V9.78764H37.6207V8.10014H43.348C43.348 7.7081 43.2628 7.3608 43.0923 7.05824C42.9219 6.75568 42.6854 6.51918 42.3828 6.34872C42.0845 6.17401 41.7372 6.08665 41.3409 6.08665C40.9276 6.08665 40.5611 6.18253 40.2415 6.37429C39.9261 6.56179 39.679 6.81534 39.5 7.13494C39.321 7.45028 39.2294 7.80185 39.2251 8.18963V9.79403C39.2251 10.2798 39.3146 10.6996 39.4936 11.0533C39.6768 11.407 39.9347 11.6797 40.267 11.8714C40.5994 12.0632 40.9936 12.1591 41.4496 12.1591C41.7521 12.1591 42.0291 12.1165 42.2805 12.0312C42.532 11.946 42.7472 11.8182 42.9261 11.6477C43.1051 11.4773 43.2415 11.2685 43.3352 11.0213L45.8537 11.1875C45.7259 11.7926 45.4638 12.321 45.0675 12.7727C44.6754 13.2202 44.1683 13.5696 43.5462 13.821C42.9283 14.0682 42.2145 14.1918 41.4048 14.1918ZM50.4879 14.1854C49.8615 14.1854 49.3033 14.0767 48.8132 13.8594C48.3232 13.6378 47.9354 13.3118 47.6499 12.8814C47.3686 12.4467 47.228 11.9055 47.228 11.2578C47.228 10.7124 47.3281 10.2543 47.5284 9.88352C47.7287 9.51278 48.0014 9.21449 48.3466 8.98864C48.6918 8.76278 49.0838 8.59233 49.5227 8.47727C49.9659 8.36222 50.4304 8.28125 50.9162 8.23438C51.4872 8.17472 51.9474 8.11932 52.2969 8.06818C52.6463 8.01278 52.8999 7.93182 53.0575 7.82528C53.2152 7.71875 53.294 7.56108 53.294 7.35227V7.31392C53.294 6.90909 53.1662 6.59588 52.9105 6.37429C52.6591 6.1527 52.3011 6.0419 51.8366 6.0419C51.3466 6.0419 50.9567 6.15057 50.6669 6.3679C50.3771 6.58097 50.1854 6.84943 50.0916 7.1733L47.5732 6.96875C47.701 6.37216 47.9524 5.85653 48.3274 5.42188C48.7024 4.98295 49.1861 4.64631 49.7784 4.41193C50.375 4.1733 51.0653 4.05398 51.8494 4.05398C52.3949 4.05398 52.9169 4.1179 53.4155 4.24574C53.9183 4.37358 54.3636 4.57173 54.7514 4.8402C55.1435 5.10866 55.4524 5.45384 55.6783 5.87571C55.9041 6.29332 56.017 6.79403 56.017 7.37784V14H53.4347V12.6385H53.358C53.2003 12.9453 52.9893 13.2159 52.7251 13.4503C52.4609 13.6804 52.1435 13.8615 51.7727 13.9936C51.402 14.1214 50.9737 14.1854 50.4879 14.1854ZM51.2678 12.3061C51.6683 12.3061 52.022 12.2273 52.3288 12.0696C52.6357 11.9077 52.8764 11.6903 53.0511 11.4176C53.2259 11.1449 53.3132 10.8359 53.3132 10.4908V9.44886C53.228 9.50426 53.1108 9.5554 52.9616 9.60227C52.8168 9.64489 52.6527 9.68537 52.4695 9.72372C52.2862 9.75781 52.103 9.78977 51.9197 9.8196C51.7365 9.84517 51.5703 9.86861 51.4212 9.88991C51.1016 9.93679 50.8224 10.0114 50.5838 10.1136C50.3452 10.2159 50.1598 10.3544 50.0277 10.5291C49.8956 10.6996 49.8295 10.9126 49.8295 11.1683C49.8295 11.5391 49.9638 11.8224 50.2322 12.0185C50.505 12.2102 50.8501 12.3061 51.2678 12.3061ZM63.3519 4.18182V6.22727H57.4393V4.18182H63.3519ZM58.7816 1.82955H61.5046V10.983C61.5046 11.2344 61.543 11.4304 61.6197 11.571C61.6964 11.7074 61.8029 11.8033 61.9393 11.8587C62.0799 11.9141 62.2418 11.9418 62.4251 11.9418C62.5529 11.9418 62.6808 11.9311 62.8086 11.9098C62.9364 11.8842 63.0344 11.8651 63.1026 11.8523L63.5309 13.8786C63.3945 13.9212 63.2028 13.9702 62.9556 14.0256C62.7085 14.0852 62.408 14.1214 62.0543 14.1342C61.3981 14.1598 60.8228 14.0724 60.3285 13.8722C59.8384 13.6719 59.457 13.3608 59.1843 12.9389C58.9116 12.517 58.7773 11.9844 58.7816 11.3409V1.82955ZM69.4947 14.1918C68.4847 14.1918 67.6154 13.9872 66.8867 13.5781C66.1623 13.1648 65.604 12.581 65.212 11.8267C64.82 11.0682 64.6239 10.1712 64.6239 9.13565C64.6239 8.12571 64.82 7.23935 65.212 6.47656C65.604 5.71378 66.1559 5.11932 66.8675 4.69318C67.5835 4.26705 68.4229 4.05398 69.386 4.05398C70.0337 4.05398 70.6367 4.15838 71.195 4.36719C71.7575 4.57173 72.2475 4.88068 72.6651 5.29403C73.087 5.70739 73.4151 6.22727 73.6495 6.85369C73.8839 7.47585 74.0011 8.20455 74.0011 9.03977V9.78764H65.7106V8.10014H71.4379C71.4379 7.7081 71.3526 7.3608 71.1822 7.05824C71.0117 6.75568 70.7752 6.51918 70.4727 6.34872C70.1744 6.17401 69.8271 6.08665 69.4308 6.08665C69.0174 6.08665 68.6509 6.18253 68.3313 6.37429C68.016 6.56179 67.7688 6.81534 67.5898 7.13494C67.4109 7.45028 67.3192 7.80185 67.315 8.18963V9.79403C67.315 10.2798 67.4045 10.6996 67.5835 11.0533C67.7667 11.407 68.0245 11.6797 68.3569 11.8714C68.6893 12.0632 69.0835 12.1591 69.5394 12.1591C69.842 12.1591 70.119 12.1165 70.3704 12.0312C70.6218 11.946 70.837 11.8182 71.016 11.6477C71.195 11.4773 71.3313 11.2685 71.4251 11.0213L73.9435 11.1875C73.8157 11.7926 73.5536 12.321 73.1573 12.7727C72.7653 13.2202 72.2582 13.5696 71.636 13.821C71.0181 14.0682 70.3043 14.1918 69.4947 14.1918Z" fill="url(#paint0_linear_2_931)"/>
<defs>
<linearGradient id="paint0_linear_2_931" x1="75" y1="6.99999" x2="-1" y2="7" gradientUnits="userSpaceOnUse">
<stop stop-color="#2DF8FE"/>
<stop offset="0.775591" stop-color="#EA2DFB"/>
</linearGradient>
</defs>
</svg>
