<svg width="17" height="13" viewBox="0 0 17 13" fill="none" xmlns="http://www.w3.org/2000/svg">
<g clip-path="url(#clip0_2_896)">
<path d="M12.7777 11.7173C12.7777 12.638 10.8098 13 8.49981 13C6.16327 13 4.22273 12.638 4.22273 11.7173C4.22273 10.7212 4.29874 9.84484 4.83955 9.28651C5.2082 8.90676 6.05799 8.52037 6.71016 8.26154C6.96964 8.42818 7.25432 8.55432 7.55387 8.63536C7.86182 8.71975 8.18026 8.76243 8.50019 8.76219C9.14248 8.76219 9.78438 8.59062 10.2902 8.26154C10.6163 8.39095 10.9918 8.55217 11.3319 8.72854C11.6721 8.90492 11.978 9.0983 12.1608 9.28651C12.7028 9.84484 12.7777 10.7212 12.7777 11.7173Z" fill="#5571DB"/>
<path d="M11.6261 4.93222C11.6261 5.14964 11.5007 5.72202 11.1788 5.89803C10.9812 7.16261 9.99416 8.26153 8.50019 8.26153C7.00621 8.26153 6.01923 7.16113 5.8216 5.89803C5.49932 5.72202 5.37428 5.14964 5.37428 4.93222C5.37428 4.81594 5.41876 4.70382 5.49906 4.6177C5.57936 4.53158 5.68973 4.47762 5.80868 4.46632V3.53305C5.80868 2.24148 6.73372 1.52341 8.50019 1.52341C10.2667 1.52341 11.1917 2.24333 11.1917 3.53305V4.46632C11.3107 4.47762 11.421 4.53158 11.5013 4.6177C11.5816 4.70382 11.6261 4.81594 11.6261 4.93222Z" fill="#5571DB"/>
<path d="M6.47339 7.92135C5.51794 8.30738 4.86768 8.67233 4.53893 9.00992C4.20335 9.35528 4.02131 9.79382 3.92287 10.263H3.82558C1.73531 10.263 0 9.9395 0 9.11679C0 8.22604 0.0668883 7.44214 0.551832 6.94297C0.881335 6.60316 1.64143 6.25781 2.22405 6.02634C2.45654 6.17465 2.71129 6.28691 2.97921 6.35912C3.25451 6.43451 3.5392 6.47259 3.8252 6.47227C4.37893 6.47227 4.93266 6.32991 5.37694 6.05592C5.39746 6.07847 5.41951 6.10029 5.44193 6.12062C5.57196 6.77415 5.90164 7.37429 6.38787 7.84259C6.41524 7.86959 6.4445 7.89584 6.47339 7.92135Z" fill="#5571DB"/>
<path d="M6.23167 1.73121C5.6844 2.14756 5.39557 2.77024 5.39557 3.53305V4.18457C5.26266 4.26176 5.15271 4.37129 5.07654 4.50239C5.00037 4.63349 4.96061 4.78163 4.96117 4.93222C4.96957 5.18093 5.0251 5.426 5.12497 5.6551C4.73941 5.90132 4.28713 6.03006 3.82596 6.02486C2.49009 6.02486 1.60723 5.04204 1.43165 3.91131C1.14319 3.75491 1.02917 3.24168 1.02917 3.0483C1.02914 2.9444 1.06886 2.84421 1.14059 2.76725C1.21232 2.69028 1.31093 2.64205 1.41721 2.63195V1.7974C1.41721 0.642272 2.24457 0 3.82444 0C5.37466 0 6.20089 0.616389 6.23167 1.73121Z" fill="#5571DB"/>
<path d="M10.5266 7.92135C11.4824 8.30738 12.1331 8.67233 12.4614 9.00992C12.797 9.35528 12.9791 9.79382 13.0775 10.263H13.1748C15.2651 10.263 17 9.9395 17 9.11679C17 8.22604 16.9331 7.44214 16.4482 6.94297C16.119 6.60316 15.3589 6.25781 14.7759 6.02634C14.5436 6.17471 14.289 6.28698 14.0212 6.35912C13.7459 6.43449 13.4612 6.47256 13.1752 6.47227C12.6214 6.47227 12.0677 6.32991 11.6234 6.05592C11.6025 6.07847 11.5809 6.10029 11.5581 6.12062C11.4282 6.77349 11.0992 7.37316 10.614 7.84149C10.5851 7.86959 10.5559 7.89584 10.5266 7.92135Z" fill="#5571DB"/>
<path d="M10.7687 1.73121C11.316 2.14756 11.6048 2.77024 11.6048 3.53305V4.18457C11.7376 4.26183 11.8475 4.37139 11.9236 4.50248C11.9997 4.63357 12.0394 4.78167 12.0388 4.93222C12.0306 5.18092 11.9752 5.42599 11.8754 5.6551C12.261 5.90132 12.7133 6.03006 13.1744 6.02486C14.5103 6.02486 15.3932 5.04204 15.5687 3.91131C15.8568 3.7538 15.9685 3.24168 15.9685 3.04719C15.9686 2.94323 15.9288 2.843 15.857 2.76603C15.7852 2.68905 15.6865 2.64086 15.5801 2.63084V1.7974C15.5801 0.642272 14.7531 0 13.1733 0C11.6253 0 10.7995 0.616389 10.7687 1.73121Z" fill="#5571DB"/>
</g>
<defs>
<clipPath id="clip0_2_896">
<rect width="17" height="13" fill="white"/>
</clipPath>
</defs>
</svg>
