<svg width="15" height="14" viewBox="0 0 15 14" fill="none" xmlns="http://www.w3.org/2000/svg">
<rect x="3.94412" width="11.0422" height="8.67603" fill="#5571DB"/>
<path d="M9.90096 11.8312C9.93127 11.9227 9.96158 12.0141 9.99189 12.1054C9.99782 12.1226 9.99782 12.1432 10.0166 12.1532C10.0448 12.2805 10.0996 12.3996 10.1377 12.5236C10.1471 12.5556 10.1757 12.5446 10.1975 12.5446C10.4723 12.5446 10.747 12.5446 11.0218 12.5446C11.0672 12.5403 11.113 12.5478 11.1544 12.5664C11.1957 12.585 11.2312 12.614 11.2571 12.6503C11.2824 12.6849 11.2971 12.7257 11.2995 12.7681C11.3018 12.8104 11.2918 12.8525 11.2704 12.8896C11.2514 12.9277 11.2215 12.9598 11.1843 12.9821C11.1471 13.0044 11.1041 13.016 11.0604 13.0154C11.0268 13.0154 10.9932 13.0154 10.9615 13.0154C8.62228 13.0154 6.28303 13.0154 3.94378 13.0154C3.89612 13.0187 3.84855 13.008 3.80728 12.9847C3.76601 12.9614 3.73297 12.9266 3.71249 12.8848C3.69153 12.8465 3.68243 12.8031 3.68629 12.7599C3.69015 12.7167 3.7068 12.6755 3.73424 12.6412C3.75476 12.6116 3.78258 12.5873 3.81518 12.5706C3.84778 12.5539 3.88416 12.5453 3.92104 12.5456C4.20966 12.5456 4.49828 12.5456 4.7864 12.5456C4.80239 12.5484 4.81887 12.5449 4.83222 12.5359C4.84556 12.5269 4.85468 12.5132 4.85757 12.4977C5.0882 11.8279 5.31883 11.158 5.54946 10.4881C5.57269 10.4197 5.57269 10.4197 5.49658 10.4197H1.83252C1.39997 10.4198 0.981322 10.2718 0.650651 10.0018C0.319979 9.73186 0.0986048 9.35735 0.0256968 8.94456C0.00874221 8.84846 0.000147842 8.75115 0 8.65365C0 6.36112 0 4.06874 0 1.77653C0.00224618 1.34892 0.164279 0.936542 0.456162 0.615604C0.748045 0.294666 1.15005 0.0868583 1.58789 0.0305798C1.67811 0.0206235 1.7689 0.016149 1.8597 0.0171826H12.2005L14.8742 0.00770244V0.0105732L14.8766 0.00770244H14.9859C14.9928 0.164642 14.9938 0.321581 14.9859 0.478521H14.9364C12.3478 0.478521 7.15036 0.488001 4.56104 0.488001C4.5047 0.488001 4.48691 0.496614 4.48691 0.55738C4.48889 3.15167 4.48889 5.74613 4.48691 8.34073C4.48691 8.40054 4.50223 8.41537 4.56401 8.41537C7.85247 8.41537 11.1411 8.41537 14.4299 8.41537C14.4877 8.41537 14.5001 8.40102 14.4996 8.346C14.4996 6.18808 14.4996 2.63708 14.4996 0.478521C14.6617 0.47246 14.8238 0.47246 14.9859 0.478521C14.9859 2.7433 14.9859 6.40084 14.9859 8.66562C14.9813 9.09122 14.8186 9.50099 14.5274 9.81988C14.2362 10.1388 13.8362 10.3454 13.4004 10.402C13.3063 10.4131 13.2116 10.4187 13.1168 10.4187H9.50016C9.48434 10.4187 9.46803 10.4187 9.45074 10.4187C9.41713 10.4149 9.41515 10.4302 9.42405 10.4556C9.58351 10.9152 9.74248 11.3738 9.90096 11.8312ZM7.49021 8.8838C5.18193 8.8838 2.87332 8.8838 0.564385 8.8838C0.510022 8.8838 0.504585 8.89576 0.514964 8.94361C0.585276 9.2318 0.754433 9.4884 0.994814 9.67151C1.23519 9.85462 1.53259 9.95341 1.83845 9.95175H13.0515C13.1148 9.95175 13.1781 9.95175 13.2408 9.94697C13.529 9.92848 13.8034 9.82085 14.0236 9.63995C14.2438 9.45905 14.3982 9.21444 14.464 8.94217C14.4753 8.89433 14.4684 8.88284 14.4146 8.88284C12.1073 8.88444 9.79915 8.88476 7.49021 8.8838ZM0.480369 6.47516V8.31777C0.480369 8.39767 0.480369 8.39767 0.560925 8.39767C1.68377 8.39767 2.80644 8.39767 3.92895 8.39767C3.99172 8.39767 4.0016 8.37949 4.0016 8.32446C4.0016 7.09 4.0016 5.85552 4.0016 4.62106C4.0016 4.5689 3.98875 4.55551 3.93439 4.55551C2.80166 4.55742 1.6691 4.55742 0.536709 4.55551C0.487288 4.55551 0.479379 4.57034 0.479379 4.6134C0.482015 5.23446 0.482345 5.85506 0.480369 6.47516ZM4.00061 2.28993C4.00061 1.71002 4.00061 1.13027 4.00061 0.550682C4.00061 0.502834 3.99073 0.487045 3.93686 0.487045C3.23904 0.487045 2.54122 0.487045 1.84389 0.487045C1.76884 0.486165 1.69384 0.490804 1.61952 0.50092C1.30315 0.548204 1.0146 0.703239 0.805779 0.938132C0.596954 1.17303 0.481564 1.47236 0.480369 1.78227C0.480369 2.52997 0.480369 3.27814 0.480369 4.02679C0.480369 4.07464 0.492229 4.08899 0.544615 4.08899C1.67734 4.08899 2.8099 4.08899 3.94229 4.08899C3.99172 4.08899 4.00358 4.07703 4.00308 4.02919C4.0016 3.44975 4.00259 2.86985 4.00259 2.28993H4.00061ZM7.48577 12.5465C8.18095 12.5465 8.87647 12.5465 9.57231 12.5465C9.61926 12.5465 9.62915 12.5398 9.61284 12.4934C9.37825 11.8175 9.14482 11.1409 8.91254 10.4637C8.90019 10.4269 8.8819 10.4192 8.84533 10.4192C7.9406 10.4192 7.03571 10.4192 6.13065 10.4192C6.12321 10.4179 6.11559 10.418 6.10821 10.4196C6.10082 10.4212 6.09383 10.4241 6.08763 10.4283C6.08143 10.4325 6.07614 10.4378 6.07208 10.444C6.06801 10.4501 6.06524 10.457 6.06393 10.4642C5.8333 11.1414 5.59987 11.8181 5.36364 12.4944C5.34683 12.5422 5.36067 12.5465 5.40564 12.546C6.1005 12.5457 6.79453 12.5459 7.48774 12.5465H7.48577Z" fill="#5571DB"/>
<path d="M9.46591 7.89168C8.51752 7.89168 7.56914 7.88833 6.62075 7.89455C6.41269 7.89455 6.3094 7.74479 6.31632 7.58355C6.32959 7.00146 6.57071 6.44598 6.99091 6.02946C7.33961 5.67425 7.79862 5.43903 8.29809 5.3596C8.44606 5.33584 8.59586 5.32447 8.74585 5.32563C9.24994 5.32563 9.75387 5.32563 10.2576 5.32563C10.8185 5.3298 11.3599 5.52535 11.7866 5.87787C12.2133 6.23039 12.4978 6.71729 12.5903 7.25292C12.6114 7.37549 12.6225 7.49948 12.6234 7.62374C12.6252 7.65923 12.6193 7.6947 12.606 7.72783C12.5927 7.76096 12.5724 7.79102 12.5463 7.81606C12.5203 7.84109 12.4891 7.86055 12.4548 7.87317C12.4205 7.88579 12.3838 7.89128 12.3471 7.88929H9.46591V7.89168Z" fill="#1B1921"/>
<path d="M9.4728 1.07646C9.97079 1.07519 10.4489 1.26547 10.802 1.60544C11.1551 1.94542 11.3543 2.40726 11.3557 2.8894C11.3576 3.13044 11.3102 3.36945 11.2162 3.59265C11.1221 3.81584 10.9834 4.0188 10.8079 4.1898C10.6324 4.3608 10.4237 4.49645 10.1938 4.58894C9.96388 4.68143 9.71733 4.72891 9.46835 4.72865C9.22033 4.72834 8.9748 4.68072 8.74578 4.58853C8.51677 4.49633 8.30875 4.36135 8.13363 4.19131C7.9585 4.02127 7.81968 3.81949 7.72511 3.5975C7.63054 3.37551 7.58207 3.13766 7.58246 2.89753C7.58278 2.65771 7.63196 2.4203 7.72719 2.19891C7.82242 1.97751 7.96182 1.77648 8.13742 1.60732C8.31301 1.43816 8.52135 1.3042 8.75049 1.21311C8.97964 1.12201 9.22509 1.07558 9.4728 1.07646Z" fill="#1B1921"/>
<path d="M2.31533 8.14912H1.11836C1.00568 8.14912 0.970093 8.11467 0.970093 8.00558C0.970093 7.5405 1.3793 7.10222 1.85967 7.06346C2.1629 7.03858 2.46776 7.03858 2.77099 7.06346C3.25828 7.10365 3.66056 7.54194 3.66056 8.02041C3.66056 8.11323 3.62053 8.15199 3.52416 8.15199L2.31533 8.14912Z" fill="#5571DB"/>
<path d="M2.31547 6.79857C2.20954 6.79882 2.10461 6.77881 2.0067 6.73968C1.90879 6.70055 1.81982 6.64307 1.74492 6.57056C1.67002 6.49804 1.61066 6.41191 1.57024 6.31712C1.52983 6.22232 1.50916 6.12073 1.50942 6.01817C1.50961 5.91516 1.53082 5.81319 1.57182 5.71813C1.61282 5.62307 1.67282 5.53679 1.74835 5.46423C1.82389 5.39168 1.91348 5.33428 2.01199 5.29534C2.1105 5.2564 2.21599 5.23667 2.32239 5.2373C2.5351 5.23932 2.7384 5.32252 2.88812 5.46882C3.03785 5.61512 3.1219 5.8127 3.12202 6.01865C3.12215 6.12119 3.10137 6.22274 3.06087 6.31748C3.02037 6.41223 2.96095 6.4983 2.88601 6.57075C2.81108 6.64321 2.72211 6.70064 2.6242 6.73973C2.52629 6.77882 2.42138 6.79882 2.31547 6.79857Z" fill="#5571DB"/>
<path d="M2.31291 3.78842H1.10408C1.01018 3.78842 0.971633 3.7511 0.970151 3.66066C0.964715 3.20707 1.3418 2.77931 1.8103 2.70802C1.87849 2.69785 1.9474 2.69289 2.01639 2.69319C2.23977 2.69319 2.46118 2.69319 2.68604 2.69654C2.94404 2.7055 3.18874 2.80958 3.37009 2.98747C3.55144 3.16535 3.65572 3.40361 3.66161 3.65349C3.66161 3.74918 3.62454 3.78794 3.52224 3.78794C3.3211 3.78794 3.11946 3.78794 2.91783 3.78794L2.31291 3.78842Z" fill="#5571DB"/>
<path d="M2.31818 0.880503C2.42406 0.880376 2.52893 0.900498 2.62677 0.939713C2.7246 0.978928 2.81346 1.03647 2.88826 1.10902C2.96307 1.18157 3.02233 1.26772 3.06266 1.36251C3.10298 1.45729 3.12357 1.55886 3.12325 1.66137C3.12299 1.86839 3.03783 2.06683 2.88649 2.21308C2.73515 2.35933 2.53003 2.44141 2.3162 2.44129C2.21029 2.44122 2.10543 2.42094 2.00763 2.3816C1.90982 2.34226 1.82098 2.28463 1.74621 2.21201C1.67143 2.13939 1.61218 2.05321 1.57184 1.9584C1.53151 1.86358 1.51088 1.762 1.51114 1.65946C1.51094 1.55691 1.5317 1.45534 1.57222 1.36059C1.61274 1.26584 1.67222 1.17978 1.74723 1.10738C1.82224 1.03498 1.91131 0.977659 2.00929 0.938721C2.10728 0.899784 2.21226 0.879998 2.31818 0.880503Z" fill="#5571DB"/>
</svg>
