<svg width="14" height="10" viewBox="0 0 14 10" fill="none" xmlns="http://www.w3.org/2000/svg">
<path fill-rule="evenodd" clip-rule="evenodd" d="M7 9.69231C8.27494 9.69231 12.0977 9.5867 12.0977 9.5867C12.573 9.58538 13.0285 9.39823 13.3648 9.06606C13.7011 8.73389 13.8911 8.28364 13.8932 7.81349C13.8932 7.81349 14 5.59572 14 4.84892C14 4.10212 13.8932 1.88184 13.8932 1.88184C13.8919 1.41116 13.7023 0.960139 13.3659 0.627319C13.0294 0.294499 12.5735 0.106935 12.0977 0.105608C12.0977 0.105608 8.27494 0 7 0C5.72505 0 1.90225 0.105608 1.90225 0.105608C1.42691 0.106931 0.971376 0.29415 0.635018 0.626427C0.298659 0.958705 0.108765 1.40908 0.106754 1.87932C0.106754 1.87932 0 4.10463 0 4.8464C0 5.58818 0.106754 7.81098 0.106754 7.81098C0.108229 8.28156 0.297887 8.73245 0.634303 9.06517C0.97072 9.39788 1.42656 9.58537 1.90225 9.5867C1.90225 9.5867 5.72505 9.69231 7 9.69231ZM5.3849 2.36979V7.32364L9.4772 4.84643L5.3849 2.36979Z" fill="#5571DB"/>
</svg>
