<svg width="177" height="54" viewBox="0 0 177 54" fill="none" xmlns="http://www.w3.org/2000/svg">
<g clip-path="url(#clip0_2_8086)">
<path d="M94.8324 12.3389L90.0208 3.26523C89.9093 3.06855 89.7477 2.90496 89.5523 2.79115C89.357 2.67733 89.135 2.61737 88.9089 2.61737C88.6828 2.61737 88.4608 2.67733 88.2655 2.79115C88.0702 2.90496 87.9085 3.06855 87.7971 3.26523L82.9919 12.3389C82.8413 12.5943 82.6066 12.7895 82.328 12.8909C82.0494 12.9923 81.7442 12.9937 81.4647 12.8948L78.4039 11.8916C78.196 11.8108 77.9698 11.7893 77.7503 11.8293C77.5309 11.8692 77.3268 11.9692 77.1607 12.1181C76.9946 12.267 76.8729 12.459 76.8093 12.6728C76.7457 12.8866 76.7425 13.1138 76.8001 13.3293L79.4646 21.6362C79.5519 21.8817 79.7143 22.0935 79.9288 22.2415C80.1433 22.3895 80.399 22.4661 80.6596 22.4605H97.1647C97.4243 22.4657 97.679 22.3889 97.8925 22.2409C98.1059 22.0928 98.2671 21.8812 98.3532 21.6362L101.018 13.3293C101.075 13.1145 101.071 12.8882 101.008 12.6753C100.944 12.4624 100.823 12.2711 100.658 12.1225C100.493 11.9738 100.29 11.8736 100.072 11.8329C99.8533 11.7922 99.6279 11.8125 99.4203 11.8916L96.3531 12.8948C96.0744 12.992 95.7707 12.9898 95.4935 12.8884C95.2162 12.7871 94.9827 12.5929 94.8324 12.3389Z" fill="#F8BF2A"/>
<path d="M91.5288 2.61985C91.5271 3.31416 91.2505 3.97955 90.7596 4.47051C90.2686 4.96146 89.6032 5.23802 88.9089 5.23971C88.2146 5.23802 87.5492 4.96146 87.0583 4.47051C86.5673 3.97955 86.2907 3.31416 86.2891 2.61985C86.2907 1.92554 86.5673 1.26015 87.0583 0.769193C87.5492 0.27824 88.2146 0.00168727 88.9089 0C89.6032 0.00168727 90.2686 0.27824 90.7596 0.769193C91.2505 1.26015 91.5271 1.92554 91.5288 2.61985Z" fill="#F8BF2A"/>
<path d="M103.126 11.9619C103.125 12.6556 102.848 13.3203 102.357 13.8103C101.866 14.3002 101.2 14.5754 100.507 14.5754C99.8128 14.5754 99.1474 14.3002 98.6563 13.8103C98.1652 13.3203 97.8884 12.6556 97.8867 11.9619C97.8867 11.2671 98.1627 10.6007 98.654 10.1094C99.1454 9.61806 99.8117 9.34204 100.507 9.34204C101.201 9.34204 101.868 9.61806 102.359 10.1094C102.85 10.6007 103.126 11.2671 103.126 11.9619Z" fill="#F7A02D"/>
<path d="M79.3624 11.9619C79.3624 12.3056 79.2946 12.646 79.1629 12.9635C79.0312 13.281 78.8381 13.5694 78.5947 13.8122C78.3514 14.0549 78.0625 14.2473 77.7447 14.3783C77.4269 14.5092 77.0863 14.5762 76.7426 14.5754C76.0489 14.5754 75.3835 14.3002 74.8923 13.8103C74.4012 13.3204 74.1244 12.6556 74.1227 11.9619C74.1227 11.2671 74.3988 10.6007 74.8901 10.1094C75.3814 9.61807 76.0478 9.34205 76.7426 9.34205C77.0869 9.34121 77.4279 9.40839 77.7462 9.53975C78.0644 9.67112 78.3535 9.86406 78.597 10.1075C78.8404 10.351 79.0334 10.6401 79.1647 10.9583C79.2961 11.2766 79.3633 11.6176 79.3624 11.9619Z" fill="#F8BF2A"/>
<path d="M99.4203 11.9172L96.3532 12.8948C96.0716 12.9898 95.7657 12.9837 95.4882 12.8776C95.2106 12.7715 94.9787 12.5719 94.8324 12.3133L93.2349 9.2973C89.2475 13.965 84.5615 17.9871 79.3433 21.2208L79.4647 21.6106C79.5519 21.8562 79.7144 22.068 79.9289 22.216C80.1434 22.364 80.399 22.4406 80.6596 22.4349H97.1647C97.4244 22.4402 97.6791 22.3633 97.8925 22.2153C98.1059 22.0673 98.2671 21.8557 98.3532 21.6106L101.018 13.3038C101.063 13.0925 101.051 12.873 100.982 12.668C100.914 12.4631 100.792 12.2803 100.629 12.1387C100.465 11.9971 100.267 11.9018 100.055 11.8628C99.8422 11.8239 99.6231 11.8426 99.4203 11.9172Z" fill="#F7A02D"/>
</g>
<path d="M175.351 53.0361H1.64692C1.35986 53.0255 1.08148 52.9468 0.841462 52.8084C0.601439 52.67 0.408784 52.477 0.284051 52.2502C-0.0224906 51.7224 -0.0835624 51.1111 0.11369 50.5447L6.55148 39.2978L0.11369 28.051C-0.0835624 27.4846 -0.0224906 26.8732 0.284051 26.3455C0.409567 26.1192 0.602398 25.9267 0.842255 25.7884C1.08211 25.6501 1.3601 25.571 1.64692 25.5596H175.333C175.616 25.5727 175.889 25.6527 176.124 25.791C176.36 25.9294 176.548 26.121 176.669 26.3455C176.98 26.8505 177.063 27.4397 176.902 27.996L171.083 39.3371L176.821 50.4346C176.931 50.6856 176.989 50.9518 176.992 51.2206C177.038 51.6502 176.893 52.0789 176.587 52.4172C176.281 52.7555 175.839 52.9772 175.351 53.0361Z" fill="#F8BF2A"/>
<path d="M176.819 50.4275L171.08 39.3332L176.899 27.9953C177.061 27.4391 176.977 26.8502 176.666 26.3453C176.545 26.1208 176.357 25.9293 176.122 25.7909C175.887 25.6526 175.613 25.5727 175.33 25.5596H159.747C148.27 34.336 112.388 49.3825 1.60207 47.9525L0.113688 50.5454C-0.0835611 51.1116 -0.0224903 51.7228 0.284047 52.2504C0.408778 52.4772 0.601429 52.6701 0.841449 52.8084C1.08147 52.9468 1.35984 53.0255 1.64689 53.0361H175.348C175.841 52.9772 176.288 52.7522 176.595 52.4088C176.901 52.0655 177.042 51.6309 176.989 51.1975C176.984 50.9341 176.926 50.6735 176.819 50.4275Z" fill="#F7A02D"/>
<path d="M40.9482 43.4766V32.5675H43.2546V41.5749H47.9315V43.4766H40.9482ZM53.445 43.6364C52.6034 43.6364 51.8789 43.4659 51.2717 43.125C50.668 42.7805 50.2028 42.294 49.8761 41.6655C49.5494 41.0334 49.386 40.2859 49.386 39.4229C49.386 38.5813 49.5494 37.8427 49.8761 37.207C50.2028 36.5714 50.6627 36.076 51.2557 35.7209C51.8523 35.3658 52.5519 35.1882 53.3544 35.1882C53.8942 35.1882 54.3967 35.2752 54.8619 35.4492C55.3306 35.6197 55.739 35.8771 56.087 36.2216C56.4386 36.5661 56.712 36.9993 56.9073 37.5213C57.1026 38.0398 57.2003 38.647 57.2003 39.343V39.9663H50.2916V38.56H55.0643C55.0643 38.2333 54.9933 37.9439 54.8512 37.6918C54.7092 37.4396 54.5121 37.2425 54.26 37.1005C54.0114 36.9549 53.722 36.8821 53.3917 36.8821C53.0472 36.8821 52.7419 36.962 52.4755 37.1218C52.2127 37.2781 52.0068 37.4893 51.8576 37.7557C51.7085 38.0185 51.6321 38.3114 51.6286 38.6346V39.9716C51.6286 40.3764 51.7031 40.7262 51.8523 41.021C52.005 41.3157 52.2198 41.543 52.4968 41.7028C52.7738 41.8626 53.1023 41.9425 53.4823 41.9425C53.7344 41.9425 53.9652 41.907 54.1747 41.8359C54.3843 41.7649 54.5636 41.6584 54.7127 41.5163C54.8619 41.3743 54.9755 41.2003 55.0536 40.9943L57.1524 41.1328C57.0458 41.6371 56.8274 42.0774 56.4972 42.4538C56.1705 42.8267 55.7479 43.1179 55.2294 43.3274C54.7145 43.5334 54.1197 43.6364 53.445 43.6364ZM61.3142 43.631C60.7922 43.631 60.327 43.5405 59.9186 43.3594C59.5102 43.1747 59.1871 42.9031 58.9492 42.5444C58.7148 42.1822 58.5976 41.7312 58.5976 41.1914C58.5976 40.7369 58.6811 40.3551 58.848 40.0462C59.0149 39.7372 59.2421 39.4886 59.5298 39.3004C59.8174 39.1122 60.1441 38.9702 60.5099 38.8743C60.8792 38.7784 61.2663 38.7109 61.6711 38.6719C62.147 38.6222 62.5305 38.576 62.8217 38.5334C63.1129 38.4872 63.3242 38.4197 63.4556 38.331C63.587 38.2422 63.6526 38.1108 63.6526 37.9368V37.9048C63.6526 37.5675 63.5461 37.3065 63.333 37.1218C63.1235 36.9371 62.8252 36.8448 62.4382 36.8448C62.0298 36.8448 61.7048 36.9354 61.4634 37.1165C61.2219 37.294 61.0621 37.5178 60.984 37.7876L58.8852 37.6172C58.9918 37.12 59.2013 36.6903 59.5138 36.3281C59.8263 35.9624 60.2294 35.6818 60.723 35.4865C61.2201 35.2876 61.7954 35.1882 62.4488 35.1882C62.9034 35.1882 63.3384 35.2415 63.7539 35.348C64.1729 35.4545 64.544 35.6197 64.8671 35.8434C65.1938 36.0671 65.4513 36.3548 65.6395 36.7063C65.8277 37.0543 65.9218 37.4716 65.9218 37.9581V43.4766H63.7698V42.342H63.7059C63.5745 42.5977 63.3987 42.8232 63.1786 43.0185C62.9584 43.2102 62.6938 43.3612 62.3849 43.4712C62.0759 43.5778 61.7191 43.631 61.3142 43.631ZM61.9641 42.065C62.2979 42.065 62.5926 41.9993 62.8483 41.8679C63.104 41.733 63.3046 41.5518 63.4502 41.3246C63.5958 41.0973 63.6686 40.8398 63.6686 40.5522V39.6839C63.5976 39.7301 63.4999 39.7727 63.3757 39.8118C63.2549 39.8473 63.1182 39.881 62.9655 39.913C62.8128 39.9414 62.6601 39.968 62.5074 39.9929C62.3547 40.0142 62.2162 40.0337 62.0919 40.0515C61.8256 40.0906 61.593 40.1527 61.3941 40.2379C61.1953 40.3232 61.0408 40.4386 60.9307 40.5842C60.8206 40.7262 60.7656 40.9038 60.7656 41.1168C60.7656 41.4258 60.8774 41.6619 61.1012 41.8253C61.3284 41.9851 61.6161 42.065 61.9641 42.065ZM70.9972 43.6097C70.3758 43.6097 69.8129 43.4499 69.3086 43.1303C68.8079 42.8072 68.4102 42.3331 68.1155 41.7081C67.8243 41.0795 67.6787 40.3089 67.6787 39.3963C67.6787 38.4588 67.8296 37.6793 68.1314 37.0579C68.4333 36.4329 68.8346 35.9659 69.3353 35.657C69.8395 35.3445 70.3917 35.1882 70.9919 35.1882C71.45 35.1882 71.8317 35.2663 72.1371 35.4226C72.4461 35.5753 72.6947 35.767 72.8829 35.9979C73.0746 36.2251 73.2202 36.4489 73.3197 36.669H73.3889V32.5675H75.6528V43.4766H73.4155V42.1662H73.3197C73.2131 42.3935 73.0622 42.619 72.8669 42.8427C72.6751 43.0629 72.4248 43.2457 72.1158 43.3913C71.8104 43.5369 71.4376 43.6097 70.9972 43.6097ZM71.7163 41.804C72.0821 41.804 72.391 41.7045 72.6432 41.5057C72.8988 41.3033 73.0942 41.021 73.2291 40.6587C73.3676 40.2965 73.4368 39.8722 73.4368 39.3857C73.4368 38.8991 73.3694 38.4766 73.2344 38.1179C73.0995 37.7592 72.9042 37.4822 72.6485 37.2869C72.3928 37.0916 72.0821 36.994 71.7163 36.994C71.3434 36.994 71.0292 37.0952 70.7735 37.2976C70.5178 37.5 70.3243 37.7805 70.1929 38.1392C70.0615 38.4979 69.9958 38.9134 69.9958 39.3857C69.9958 39.8615 70.0615 40.2823 70.1929 40.6481C70.3278 41.0103 70.5214 41.2944 70.7735 41.5004C71.0292 41.7028 71.3434 41.804 71.7163 41.804ZM81.5471 43.6364C80.7055 43.6364 79.9811 43.4659 79.3738 43.125C78.7701 42.7805 78.3049 42.294 77.9782 41.6655C77.6515 41.0334 77.4882 40.2859 77.4882 39.4229C77.4882 38.5813 77.6515 37.8427 77.9782 37.207C78.3049 36.5714 78.7648 36.076 79.3578 35.7209C79.9544 35.3658 80.654 35.1882 81.4566 35.1882C81.9963 35.1882 82.4988 35.2752 82.964 35.4492C83.4328 35.6197 83.8412 35.8771 84.1892 36.2216C84.5407 36.5661 84.8142 36.9993 85.0095 37.5213C85.2048 38.0398 85.3025 38.647 85.3025 39.343V39.9663H78.3937V38.56H83.1664C83.1664 38.2333 83.0954 37.9439 82.9534 37.6918C82.8113 37.4396 82.6142 37.2425 82.3621 37.1005C82.1135 36.9549 81.8241 36.8821 81.4939 36.8821C81.1494 36.8821 80.844 36.962 80.5777 37.1218C80.3149 37.2781 80.1089 37.4893 79.9598 37.7557C79.8106 38.0185 79.7343 38.3114 79.7307 38.6346V39.9716C79.7307 40.3764 79.8053 40.7262 79.9544 41.021C80.1071 41.3157 80.322 41.543 80.599 41.7028C80.876 41.8626 81.2044 41.9425 81.5844 41.9425C81.8365 41.9425 82.0674 41.907 82.2769 41.8359C82.4864 41.7649 82.6657 41.6584 82.8149 41.5163C82.964 41.3743 83.0777 41.2003 83.1558 40.9943L85.2545 41.1328C85.148 41.6371 84.9296 42.0774 84.5993 42.4538C84.2726 42.8267 83.85 43.1179 83.3316 43.3274C82.8167 43.5334 82.2218 43.6364 81.5471 43.6364ZM87.0833 43.4766V35.2947H89.2832V36.7223H89.3684C89.5176 36.2145 89.7679 35.831 90.1195 35.5717C90.4711 35.3089 90.8759 35.1776 91.334 35.1776C91.4476 35.1776 91.5701 35.1847 91.7015 35.1989C91.8329 35.2131 91.9483 35.2326 92.0478 35.2575V37.271C91.9412 37.239 91.7939 37.2106 91.6056 37.1857C91.4174 37.1609 91.2452 37.1484 91.089 37.1484C90.7551 37.1484 90.4569 37.2212 90.1941 37.3668C89.9348 37.5089 89.7289 37.7077 89.5762 37.9634C89.427 38.2191 89.3525 38.5138 89.3525 38.8477V43.4766H87.0833ZM93.5636 43.4766V32.5675H95.8328V36.669H95.902C96.0014 36.4489 96.1453 36.2251 96.3335 35.9979C96.5252 35.767 96.7738 35.5753 97.0792 35.4226C97.3882 35.2663 97.7717 35.1882 98.2298 35.1882C98.8264 35.1882 99.3768 35.3445 99.8811 35.657C100.385 35.9659 100.788 36.4329 101.09 37.0579C101.392 37.6793 101.543 38.4588 101.543 39.3963C101.543 40.3089 101.396 41.0795 101.101 41.7081C100.81 42.3331 100.412 42.8072 99.9077 43.1303C99.407 43.4499 98.8459 43.6097 98.2244 43.6097C97.7841 43.6097 97.4095 43.5369 97.1005 43.3913C96.7951 43.2457 96.5448 43.0629 96.3494 42.8427C96.1541 42.619 96.005 42.3935 95.902 42.1662H95.8008V43.4766H93.5636ZM95.7848 39.3857C95.7848 39.8722 95.8523 40.2965 95.9872 40.6587C96.1222 41.021 96.3175 41.3033 96.5732 41.5057C96.8289 41.7045 97.1396 41.804 97.5053 41.804C97.8747 41.804 98.1872 41.7028 98.4428 41.5004C98.6985 41.2944 98.8921 41.0103 99.0235 40.6481C99.1584 40.2823 99.2259 39.8615 99.2259 39.3857C99.2259 38.9134 99.1602 38.4979 99.0288 38.1392C98.8974 37.7805 98.7039 37.5 98.4482 37.2976C98.1925 37.0952 97.8782 36.994 97.5053 36.994C97.136 36.994 96.8235 37.0916 96.5678 37.2869C96.3157 37.4822 96.1222 37.7592 95.9872 38.1179C95.8523 38.4766 95.7848 38.8991 95.7848 39.3857ZM107.054 43.6364C106.226 43.6364 105.511 43.4606 104.907 43.109C104.307 42.7539 103.844 42.2603 103.517 41.6282C103.19 40.9925 103.027 40.2557 103.027 39.4176C103.027 38.5724 103.19 37.8338 103.517 37.2017C103.844 36.5661 104.307 36.0724 104.907 35.7209C105.511 35.3658 106.226 35.1882 107.054 35.1882C107.881 35.1882 108.595 35.3658 109.195 35.7209C109.799 36.0724 110.264 36.5661 110.591 37.2017C110.917 37.8338 111.081 38.5724 111.081 39.4176C111.081 40.2557 110.917 40.9925 110.591 41.6282C110.264 42.2603 109.799 42.7539 109.195 43.109C108.595 43.4606 107.881 43.6364 107.054 43.6364ZM107.064 41.8786C107.441 41.8786 107.755 41.772 108.007 41.5589C108.259 41.3423 108.449 41.0476 108.577 40.6747C108.709 40.3018 108.774 39.8775 108.774 39.4016C108.774 38.9258 108.709 38.5014 108.577 38.1286C108.449 37.7557 108.259 37.4609 108.007 37.2443C107.755 37.0277 107.441 36.9194 107.064 36.9194C106.685 36.9194 106.365 37.0277 106.106 37.2443C105.85 37.4609 105.656 37.7557 105.525 38.1286C105.397 38.5014 105.333 38.9258 105.333 39.4016C105.333 39.8775 105.397 40.3018 105.525 40.6747C105.656 41.0476 105.85 41.3423 106.106 41.5589C106.365 41.772 106.685 41.8786 107.064 41.8786ZM115.189 43.631C114.667 43.631 114.202 43.5405 113.794 43.3594C113.385 43.1747 113.062 42.9031 112.824 42.5444C112.59 42.1822 112.473 41.7312 112.473 41.1914C112.473 40.7369 112.556 40.3551 112.723 40.0462C112.89 39.7372 113.117 39.4886 113.405 39.3004C113.693 39.1122 114.019 38.9702 114.385 38.8743C114.754 38.7784 115.141 38.7109 115.546 38.6719C116.022 38.6222 116.406 38.576 116.697 38.5334C116.988 38.4872 117.199 38.4197 117.331 38.331C117.462 38.2422 117.528 38.1108 117.528 37.9368V37.9048C117.528 37.5675 117.421 37.3065 117.208 37.1218C116.999 36.9371 116.7 36.8448 116.313 36.8448C115.905 36.8448 115.58 36.9354 115.339 37.1165C115.097 37.294 114.937 37.5178 114.859 37.7876L112.76 37.6172C112.867 37.12 113.076 36.6903 113.389 36.3281C113.701 35.9624 114.105 35.6818 114.598 35.4865C115.095 35.2876 115.671 35.1882 116.324 35.1882C116.779 35.1882 117.214 35.2415 117.629 35.348C118.048 35.4545 118.419 35.6197 118.742 35.8434C119.069 36.0671 119.326 36.3548 119.515 36.7063C119.703 37.0543 119.797 37.4716 119.797 37.9581V43.4766H117.645V42.342H117.581C117.45 42.5977 117.274 42.8232 117.054 43.0185C116.834 43.2102 116.569 43.3612 116.26 43.4712C115.951 43.5778 115.594 43.631 115.189 43.631ZM115.839 42.065C116.173 42.065 116.468 41.9993 116.724 41.8679C116.979 41.733 117.18 41.5518 117.325 41.3246C117.471 41.0973 117.544 40.8398 117.544 40.5522V39.6839C117.473 39.7301 117.375 39.7727 117.251 39.8118C117.13 39.8473 116.993 39.881 116.841 39.913C116.688 39.9414 116.535 39.968 116.383 39.9929C116.23 40.0142 116.091 40.0337 115.967 40.0515C115.701 40.0906 115.468 40.1527 115.269 40.2379C115.07 40.3232 114.916 40.4386 114.806 40.5842C114.696 40.7262 114.641 40.9038 114.641 41.1168C114.641 41.4258 114.753 41.6619 114.976 41.8253C115.204 41.9851 115.491 42.065 115.839 42.065ZM121.857 43.4766V35.2947H124.057V36.7223H124.143C124.292 36.2145 124.542 35.831 124.894 35.5717C125.245 35.3089 125.65 35.1776 126.108 35.1776C126.222 35.1776 126.344 35.1847 126.476 35.1989C126.607 35.2131 126.723 35.2326 126.822 35.2575V37.271C126.715 37.239 126.568 37.2106 126.38 37.1857C126.192 37.1609 126.019 37.1484 125.863 37.1484C125.529 37.1484 125.231 37.2212 124.968 37.3668C124.709 37.5089 124.503 37.7077 124.35 37.9634C124.201 38.2191 124.127 38.5138 124.127 38.8477V43.4766H121.857ZM130.929 43.6097C130.308 43.6097 129.745 43.4499 129.241 43.1303C128.74 42.8072 128.342 42.3331 128.047 41.7081C127.756 41.0795 127.611 40.3089 127.611 39.3963C127.611 38.4588 127.762 37.6793 128.063 37.0579C128.365 36.4329 128.767 35.9659 129.267 35.657C129.772 35.3445 130.324 35.1882 130.924 35.1882C131.382 35.1882 131.764 35.2663 132.069 35.4226C132.378 35.5753 132.627 35.767 132.815 35.9979C133.007 36.2251 133.152 36.4489 133.252 36.669H133.321V32.5675H135.585V43.4766H133.348V42.1662H133.252C133.145 42.3935 132.994 42.619 132.799 42.8427C132.607 43.0629 132.357 43.2457 132.048 43.3913C131.742 43.5369 131.37 43.6097 130.929 43.6097ZM131.648 41.804C132.014 41.804 132.323 41.7045 132.575 41.5057C132.831 41.3033 133.026 41.021 133.161 40.6587C133.3 40.2965 133.369 39.8722 133.369 39.3857C133.369 38.8991 133.301 38.4766 133.166 38.1179C133.032 37.7592 132.836 37.4822 132.581 37.2869C132.325 37.0916 132.014 36.994 131.648 36.994C131.275 36.994 130.961 37.0952 130.706 37.2976C130.45 37.5 130.256 37.7805 130.125 38.1392C129.994 38.4979 129.928 38.9134 129.928 39.3857C129.928 39.8615 129.994 40.2823 130.125 40.6481C130.26 41.0103 130.453 41.2944 130.706 41.5004C130.961 41.7028 131.275 41.804 131.648 41.804Z" fill="#A3490A"/>
<defs>
<clipPath id="clip0_2_8086">
<rect width="28.9973" height="22.4605" fill="white" transform="translate(74.1227)"/>
</clipPath>
</defs>
</svg>
