<svg width="16" height="16" viewBox="0 0 16 16" fill="none" xmlns="http://www.w3.org/2000/svg">
<circle cx="8" cy="8" r="8" fill="#302C3D"/>
<g clip-path="url(#clip0_2_959)">
<path d="M6.5148 7.68689V6.24709C6.52189 5.83587 6.68159 5.44403 6.95954 5.15587C7.23748 4.86771 7.61146 4.70626 8.001 4.70626C8.39054 4.70626 8.76452 4.86771 9.04247 5.15587C9.32041 5.44403 9.48011 5.83587 9.4872 6.24709V7.68533H10.4239V6.24709C10.4149 5.57535 10.1557 4.93438 9.70262 4.46274C9.2495 3.9911 8.63877 3.7267 8.00248 3.7267C7.36619 3.7267 6.75546 3.9911 6.30234 4.46274C5.84922 4.93438 5.5901 5.57535 5.58102 6.24709V7.68533L6.5148 7.68689Z" fill="#838282"/>
<path d="M10.2775 7.52292H5.724C5.28208 7.52292 4.92383 7.90116 4.92383 8.36775V11.4634C4.92383 11.93 5.28208 12.3082 5.724 12.3082H10.2775C10.7194 12.3082 11.0777 11.93 11.0777 11.4634V8.36775C11.0777 7.90116 10.7194 7.52292 10.2775 7.52292Z" fill="#838282"/>
</g>
<defs>
<clipPath id="clip0_2_959">
<rect width="6.15385" height="8.61539" fill="white" transform="translate(4.92383 3.69231)"/>
</clipPath>
</defs>
</svg>
