<svg width="15" height="13" viewBox="0 0 15 13" fill="none" xmlns="http://www.w3.org/2000/svg">
<path d="M0.00598993 6.60374C0.00598993 7.78228 0.000983404 8.96115 0.00598993 10.1397C0.0136666 11.5415 0.940542 12.6646 2.315 12.9477C2.50606 12.9849 2.70045 13.0023 2.89509 12.9997C3.81796 12.9997 4.74083 12.9997 5.6637 12.9997C7.26145 12.9967 8.50974 11.7731 8.54412 10.1761C8.54901 9.94287 8.54901 9.70924 8.54412 9.47515C8.53644 9.03625 8.22704 8.72117 7.81583 8.72885C7.41331 8.73586 7.1246 9.05394 7.11693 9.4865C7.11125 9.79724 7.14763 10.1093 7.09022 10.4184C6.9694 11.0662 6.41935 11.5585 5.76316 11.5672C4.76853 11.5806 3.77346 11.5806 2.77794 11.5672C2.01361 11.5555 1.4235 10.915 1.4225 10.12C1.41939 7.76826 1.41939 5.41653 1.4225 3.0648C1.42391 2.98658 1.43037 2.90854 1.44186 2.83116C1.52797 2.16896 2.09772 1.62959 2.76492 1.61958C3.76622 1.60445 4.76686 1.60445 5.76683 1.61958C6.50813 1.63126 7.10424 2.25875 7.11759 3.00238C7.12193 3.25271 7.11492 3.50304 7.1196 3.75303C7.12151 3.92976 7.18916 4.09944 7.30936 4.22902C7.42955 4.35859 7.59369 4.43878 7.76978 4.45394C8.14326 4.48532 8.49138 4.23432 8.52543 3.85316C8.61588 2.84818 8.52543 1.88392 7.78279 1.0989C7.22807 0.513472 6.54785 0.197727 5.74213 0.187047C4.75818 0.175365 3.7729 0.177367 2.79029 0.187047C1.29233 0.201065 0.0350279 1.43334 0.0103291 2.93196C-0.0100308 4.15455 0.00598993 5.37815 0.00598993 6.60107V6.60374Z" fill="#5571DB"/>
<path d="M11.7994 5.88527H11.5901C8.93264 5.88527 6.27518 5.88527 3.61772 5.88527C3.15044 5.88527 2.82702 6.20569 2.85005 6.63692C2.86054 6.80764 2.93253 6.96878 3.05267 7.09052C3.17282 7.21227 3.333 7.28637 3.50357 7.29912C3.57032 7.30379 3.63707 7.30245 3.70383 7.30245H11.7677C11.765 7.37755 11.7046 7.40659 11.6655 7.44564C11.1752 7.93828 10.6823 8.42792 10.1923 8.92123C9.98268 9.13217 9.90992 9.3855 10.0087 9.66987C10.1075 9.95424 10.3168 10.1135 10.6135 10.1478C10.7163 10.1606 10.8207 10.1491 10.9183 10.1144C11.0159 10.0796 11.104 10.0225 11.1756 9.94757C12.1324 8.99366 13.0873 8.03797 14.0403 7.0805C14.1054 7.01661 14.157 6.94036 14.1922 6.85624C14.2274 6.77211 14.2455 6.6818 14.2453 6.5906C14.2451 6.49941 14.2267 6.40917 14.1911 6.32519C14.1556 6.24121 14.1036 6.16517 14.0383 6.10155C13.0879 5.14141 12.1326 4.18628 11.1722 3.23615C11.1064 3.1698 11.0279 3.11739 10.9414 3.08204C10.8549 3.0467 10.7621 3.02914 10.6687 3.03042C10.5752 3.03169 10.483 3.05178 10.3975 3.08948C10.312 3.12718 10.2349 3.18171 10.1709 3.24984C9.8959 3.53354 9.89556 3.9601 10.1843 4.25381C10.6752 4.75446 11.1739 5.24577 11.6689 5.74108C11.7056 5.7808 11.7403 5.82119 11.7994 5.88527Z" fill="#5571DB"/>
</svg>
