<svg width="17" height="17" viewBox="0 0 17 17" fill="none" xmlns="http://www.w3.org/2000/svg">
<g clip-path="url(#clip0_2_904)">
<path d="M6.5 10H11.5L11 12H7L6.5 10Z" fill="#5571DB"/>
<path d="M14.9339 2.54953C14.6762 2.56341 14.3582 2.53458 14.0395 2.53458C9.89304 2.53601 5.74646 2.53601 1.59977 2.53458H1.52768C1.45869 2.53458 1.45524 2.52248 1.49111 2.45984C1.59839 2.27333 1.7198 2.09643 1.83983 1.91882C1.98125 1.7106 2.1175 1.49918 2.25374 1.28811C2.38999 1.07704 2.53417 0.855654 2.67421 0.638892C2.77562 0.481807 2.87691 0.324367 2.97809 0.16657C2.99054 0.149202 3.00205 0.13114 3.01258 0.112469C3.02867 0.0809399 3.05263 0.054418 3.08198 0.0356454C3.11133 0.0168728 3.145 0.00653093 3.17952 0.00568927C3.20022 0.00390962 3.22161 0.00319776 3.24265 0.00319776H3.42304H13.7708C13.9029 0.00319776 13.8819 -0.0192259 13.9664 0.109977C14.2221 0.500078 14.4769 0.890772 14.7307 1.28206C14.9846 1.67335 15.2388 2.06487 15.4934 2.45663C15.5051 2.47443 15.5168 2.49223 15.5279 2.51145C15.5389 2.53067 15.5313 2.54918 15.5096 2.5506C15.4878 2.55202 15.4675 2.5506 15.4465 2.5506L14.9339 2.54953Z" fill="#5571DB"/>
<path d="M8.50828 4.50716H3.15779C2.2012 4.50716 1.24472 4.50716 0.288357 4.50716C0.255979 4.51331 0.222589 4.51023 0.191778 4.49826C0.186259 4.4559 0.218682 4.4317 0.237308 4.40251C0.379418 4.1835 0.522447 3.96531 0.666396 3.74796L1.17758 2.97203C1.18792 2.95672 1.19896 2.94213 1.20965 2.92682C1.21382 2.92027 1.2195 2.91489 1.22619 2.91116C1.23287 2.90743 1.24034 2.90548 1.24794 2.90547H15.6658C15.6809 2.90671 15.696 2.90671 15.711 2.90547C15.7734 2.89479 15.8117 2.92611 15.8442 2.97665C15.9397 3.12686 16.0373 3.27599 16.1346 3.42513C16.3091 3.69231 16.4839 3.9595 16.6589 4.22668C16.7058 4.29787 16.7541 4.36906 16.8017 4.44024C16.81 4.45304 16.8174 4.46649 16.8237 4.48046C16.8303 4.49506 16.8237 4.50502 16.8086 4.50609C16.7879 4.50823 16.7665 4.50609 16.7454 4.50609H8.50828V4.50716Z" fill="#5571DB"/>
<path d="M8.61452 16.984H1.26208C1.18703 16.98 1.11178 16.984 1.03754 16.9961C0.980968 17.0082 0.9244 16.9858 0.868177 16.9776C0.850284 16.9735 0.833975 16.9641 0.821367 16.9503C0.808759 16.9366 0.800433 16.9193 0.797468 16.9007C0.786953 16.8587 0.780825 16.8156 0.779187 16.7722C0.779187 16.6238 0.772288 16.475 0.785395 16.3262C0.785554 16.2861 0.783481 16.2461 0.779187 16.2063C0.779187 16.0792 0.779187 15.9518 0.777462 15.8247C0.776645 15.7689 0.781734 15.7132 0.792639 15.6585C0.795159 15.6291 0.80836 15.6017 0.829596 15.5819C0.850832 15.5621 0.878535 15.5513 0.907154 15.5517C0.92509 15.5517 0.943371 15.5517 0.961307 15.5517H4.59717C5.14077 15.5809 5.68506 15.5606 6.22901 15.5642C6.77296 15.5677 7.32346 15.5642 7.87086 15.5642H16.0535C16.088 15.5642 16.1198 15.5642 16.1525 15.5642C16.1617 15.5642 16.1704 15.5679 16.1769 15.5746C16.1834 15.5813 16.187 15.5903 16.187 15.5998C16.187 15.6183 16.187 15.6368 16.187 15.6553C16.187 16.0307 16.187 16.4062 16.187 16.7818C16.1868 16.8252 16.1827 16.8684 16.1749 16.911C16.166 16.9626 16.1749 16.979 16.1022 16.9786H8.61452V16.984Z" fill="#5571DB"/>
<path d="M8.97013 12.474C8.48724 12.474 8.00319 12.474 7.518 12.474C7.37303 12.4749 7.23095 12.4321 7.10926 12.3508C6.95232 12.2462 6.86022 12.0942 6.80779 11.9134C6.74985 11.7116 6.69293 11.5094 6.63533 11.3083C6.57049 11.0826 6.50553 10.8572 6.44045 10.632C6.39733 10.4836 6.35284 10.3359 6.30972 10.1875C6.24488 9.96536 6.18141 9.74255 6.11656 9.52045C6.07586 9.38092 6.03309 9.24246 5.99239 9.10294C5.99061 9.09214 5.98491 9.08246 5.97645 9.07584C5.96799 9.06923 5.95741 9.06619 5.94686 9.06734H5.74818C5.67023 9.06734 5.59193 9.06734 5.51398 9.06734C5.46573 9.06746 5.41789 9.05828 5.3729 9.04029C5.33591 9.02699 5.30287 9.00407 5.27697 8.97373C5.25108 8.94339 5.23321 8.90667 5.22509 8.86712C5.21697 8.82757 5.21888 8.78653 5.23064 8.74797C5.2424 8.7094 5.2636 8.67462 5.29219 8.64699C5.33061 8.61182 5.37899 8.59035 5.43016 8.58577C5.51011 8.57336 5.59077 8.56646 5.67161 8.56512C5.73784 8.56512 5.80199 8.58541 5.86856 8.58257C5.93461 8.5783 6.00085 8.5783 6.06689 8.58257C6.11945 8.58772 6.17026 8.60477 6.21569 8.63252C6.26113 8.66027 6.30006 8.69802 6.32973 8.74309C6.38655 8.82322 6.431 8.91195 6.46149 9.00612C6.50288 9.12928 6.5353 9.25528 6.56807 9.38021C6.5798 9.42506 6.5936 9.46919 6.60705 9.51333C6.6098 9.52394 6.61598 9.53326 6.62458 9.53974C6.63318 9.54621 6.64367 9.54945 6.6543 9.54892H6.74467H11.1925C11.2404 9.54892 11.2887 9.54892 11.3367 9.54892C11.4121 9.55138 11.4858 9.57369 11.5505 9.61374C11.6153 9.6538 11.6691 9.71026 11.7068 9.77778C11.7461 9.84404 11.7712 9.91818 11.7806 9.99526C11.7852 10.0571 11.7772 10.1193 11.7571 10.1779C11.7195 10.3181 11.6768 10.4569 11.6364 10.5961C11.5702 10.8246 11.5046 11.0527 11.4381 11.2812C11.395 11.4293 11.3508 11.577 11.3073 11.7254C11.2856 11.7995 11.2625 11.8732 11.2439 11.9479C11.2091 12.0904 11.1277 12.2161 11.0135 12.3038C10.9477 12.3535 10.8734 12.3897 10.7944 12.4106C10.6615 12.4494 10.5242 12.4694 10.3861 12.47H8.97013V12.474ZM9.03912 10.0373H6.88333C6.85332 10.0373 6.82332 10.0373 6.79331 10.0397C6.77537 10.0397 6.76882 10.0554 6.77123 10.0732C6.773 10.0823 6.77543 10.0912 6.77848 10.0999C6.81538 10.2273 6.85298 10.3547 6.88989 10.4822C6.95611 10.7107 7.02211 10.9391 7.08787 11.1673C7.1334 11.3247 7.17721 11.482 7.22274 11.6393C7.23964 11.6987 7.25723 11.7575 7.27793 11.8173C7.28799 11.8515 7.30572 11.8827 7.3297 11.9085C7.35367 11.9343 7.38321 11.9539 7.4159 11.9657C7.45358 11.9765 7.49285 11.9801 7.53179 11.9764H10.0946C10.2508 11.9764 10.4074 11.9764 10.5637 11.9764C10.6137 11.9793 10.6632 11.9647 10.7041 11.9349C10.745 11.9051 10.7749 11.8619 10.7889 11.8123C10.8027 11.7746 10.8141 11.7361 10.8251 11.6973C10.8983 11.4425 10.9707 11.1869 11.0445 10.9317C11.108 10.7125 11.1728 10.4932 11.2373 10.274C11.2563 10.2088 11.2756 10.1437 11.2939 10.0782C11.2957 10.0738 11.2964 10.0691 11.2959 10.0644C11.2954 10.0597 11.2937 10.0552 11.291 10.0514C11.2884 10.0476 11.2848 10.0445 11.2806 10.0425C11.2765 10.0406 11.2719 10.0397 11.2673 10.0401C11.2404 10.0383 11.2135 10.0383 11.1863 10.0383L9.03912 10.0373Z" fill="#5571DB"/>
<path d="M1.27381 4.88052H2.42759C2.53693 4.88052 2.54348 4.87625 2.54314 4.99798C2.54314 5.35391 2.54624 5.70984 2.54314 6.06791C2.54347 6.27926 2.49536 6.48769 2.40275 6.6762C2.34837 6.78361 2.28116 6.88358 2.20269 6.97376C2.09851 7.09817 1.97004 7.19848 1.82569 7.26811C1.65301 7.35179 1.46458 7.39518 1.27381 7.39518C1.08304 7.39518 0.894608 7.35179 0.721929 7.26811C0.631597 7.22551 0.547715 7.16965 0.472893 7.10225C0.248691 6.90257 0.091405 6.6584 0.031043 6.35479C0.0141905 6.27944 0.00471501 6.20253 0.00275907 6.12522C0.00275907 5.77178 0.000689531 5.41834 0.000344606 5.0649C-0.000356873 5.02152 0.00137064 4.97815 0.00551849 4.93498C0.00566612 4.92713 0.00739475 4.9194 0.0105945 4.91228C0.0137942 4.90515 0.0183951 4.8988 0.0241046 4.89361C0.0298141 4.88842 0.0365073 4.88451 0.0437587 4.88214C0.0510101 4.87976 0.0586612 4.87897 0.0662254 4.87981C0.0900253 4.87981 0.11417 4.87981 0.138315 4.87981H1.27381V4.88052Z" fill="#5571DB"/>
<path d="M7.05097 4.88126H8.22372C8.30305 4.88126 8.30374 4.88126 8.30408 4.96454C8.30408 5.17526 8.30615 5.38597 8.30408 5.59703C8.30408 5.73015 8.32271 5.8622 8.31995 5.99568C8.31596 6.29152 8.22924 6.57987 8.07022 6.82607C7.90105 7.09402 7.64038 7.28651 7.34002 7.3653C7.24969 7.3893 7.15724 7.40373 7.06408 7.40837C6.95602 7.41012 6.84836 7.39438 6.74502 7.36174C6.57555 7.31738 6.41771 7.23485 6.28282 7.12007C6.14395 7.00543 6.02878 6.86322 5.9441 6.70185C5.87929 6.5761 5.8328 6.44117 5.80613 6.30142C5.7894 6.22302 5.77971 6.14319 5.77716 6.06295C5.77716 5.70037 5.77716 5.33768 5.77716 4.97487V4.956C5.77923 4.89051 5.78647 4.88197 5.85201 4.88161C5.99619 4.88161 6.14037 4.88161 6.28454 4.88161L7.05097 4.88126Z" fill="#5571DB"/>
<path d="M17 5.51765C17 5.67889 17 5.84048 17 6.00172C16.9994 6.12253 16.9849 6.24283 16.9569 6.36014C16.9234 6.50518 16.865 6.64284 16.7844 6.76662C16.7461 6.82606 16.7068 6.88478 16.6647 6.94102C16.6046 7.01419 16.535 7.07839 16.4578 7.1318C16.3179 7.24026 16.1558 7.31417 15.9839 7.34785C15.8606 7.37591 15.7334 7.38037 15.6086 7.36102C15.5379 7.34856 15.4668 7.34144 15.3964 7.32294C15.1858 7.26783 14.9932 7.15592 14.8384 6.99868C14.7376 6.9006 14.655 6.78446 14.5945 6.65592C14.5478 6.55173 14.5137 6.44198 14.4931 6.32918C14.4672 6.18935 14.4545 6.04726 14.4551 5.90491C14.4551 5.59774 14.4551 5.29057 14.4551 4.9834C14.4551 4.96774 14.4551 4.95208 14.4551 4.93677C14.4572 4.89121 14.4634 4.88516 14.5096 4.88303C14.5307 4.88303 14.5517 4.88303 14.5728 4.88303H16.8734C16.9007 4.88303 16.9276 4.88303 16.9545 4.88481C16.9814 4.88659 16.9962 4.90153 16.9986 4.93321C16.9986 4.95457 16.9986 4.97628 16.9986 4.99799V5.51943L17 5.51765Z" fill="#5571DB"/>
<path d="M4.16877 4.88125H5.31392C5.4174 4.88125 5.41361 4.87769 5.41361 4.98233C5.41361 5.35748 5.41568 5.73299 5.41361 6.10814C5.41206 6.31999 5.35329 6.52719 5.2439 6.70646C5.17599 6.82662 5.09282 6.93687 4.99659 7.03428C4.81843 7.21229 4.5927 7.33117 4.34848 7.37561C4.10125 7.41912 3.84702 7.38178 3.62137 7.26883C3.44608 7.18481 3.2913 7.06122 3.16849 6.90721C3.05417 6.76237 2.97643 6.59055 2.94222 6.40712C2.91913 6.27334 2.90598 6.13793 2.90289 6.00207C2.88461 5.67035 2.89462 5.33897 2.89048 5.0076C2.89048 4.87662 2.89048 4.88125 3.01534 4.88125H4.16877Z" fill="#5571DB"/>
<path d="M14.0947 5.51942C14.0947 5.69917 14.0971 5.87927 14.0947 6.05902C14.0897 6.36514 13.9839 6.66038 13.7946 6.89617C13.6246 7.11862 13.4 7.25423 13.1392 7.33111C13.0608 7.35113 12.9808 7.36435 12.9002 7.37062C12.8583 7.37421 12.8161 7.37229 12.7747 7.36493C12.6854 7.35535 12.5968 7.33989 12.5094 7.31866C12.3169 7.26675 12.14 7.16606 11.9948 7.02572C11.8769 6.91483 11.778 6.78413 11.7023 6.63918C11.6283 6.49359 11.5815 6.33493 11.5643 6.17149C11.5453 6.00135 11.5533 5.83122 11.5516 5.66108C11.5495 5.43791 11.5516 5.21475 11.5516 4.99122C11.5516 4.96666 11.5516 4.94175 11.5516 4.91683C11.5513 4.91208 11.5519 4.90731 11.5536 4.90285C11.5552 4.89839 11.5577 4.89433 11.561 4.89096C11.5642 4.88759 11.5682 4.88498 11.5725 4.88331C11.5768 4.88163 11.5814 4.88092 11.586 4.88124C11.6067 4.88124 11.6278 4.88124 11.6488 4.88124H14.0023C14.0981 4.88124 14.0947 4.88124 14.0943 4.98019V5.51978L14.0947 5.51942Z" fill="#5571DB"/>
<path d="M9.93593 4.88126H11.0897C11.1708 4.88126 11.1804 4.89158 11.1866 4.97629C11.1866 4.98875 11.1866 5.0012 11.1866 5.01188C11.1866 5.34041 11.1918 5.66929 11.1866 5.99781C11.1881 6.21869 11.1432 6.43728 11.0549 6.63849C11.0253 6.70292 10.9898 6.7643 10.949 6.82179C10.7702 7.08217 10.5072 7.2682 10.2074 7.34644C10.1381 7.36672 10.0663 7.37643 9.99422 7.37527C9.90143 7.37206 9.80761 7.38168 9.71828 7.35427C9.66068 7.33683 9.60204 7.32223 9.54582 7.29981C9.36142 7.23146 9.19352 7.12279 9.05361 6.98125C8.86857 6.79296 8.74407 6.55055 8.69695 6.28683C8.67496 6.17468 8.66341 6.06062 8.66246 5.9462C8.66453 5.62586 8.66246 5.30731 8.66453 4.98804C8.66453 4.88126 8.66453 4.88126 8.77146 4.88126H9.93593Z" fill="#5571DB"/>
<path d="M10.195 14.1508C10.0715 14.1607 9.94821 14.1303 9.84245 14.0639C9.73241 13.9985 9.64333 13.9012 9.58617 13.7842C9.5296 13.6703 9.5603 13.6859 9.43268 13.6856C9.15018 13.6856 8.86735 13.6856 8.58485 13.6856C8.56071 13.6856 8.53656 13.6856 8.51276 13.6856C8.50371 13.6857 8.49487 13.6884 8.48725 13.6934C8.47962 13.6985 8.47352 13.7056 8.46965 13.7141C8.45826 13.7361 8.44792 13.7585 8.43757 13.781C8.39604 13.8766 8.33194 13.9599 8.25113 14.0233C8.17032 14.0867 8.07539 14.1282 7.97502 14.144C7.73082 14.1885 7.50075 14.1344 7.31311 13.9547C7.25028 13.8961 7.1999 13.8248 7.16517 13.7452C7.13044 13.6655 7.1121 13.5793 7.11133 13.4919C7.1065 13.4115 7.11207 13.3307 7.12789 13.2517C7.14716 13.1607 7.18633 13.0755 7.2424 13.0025C7.34195 12.8767 7.47754 12.7866 7.62975 12.7452C7.72522 12.7169 7.82532 12.7093 7.92378 12.7228C8.02224 12.7362 8.11695 12.7705 8.20198 12.8235C8.3105 12.8917 8.39629 12.9924 8.44792 13.1122C8.45585 13.1285 8.46171 13.1478 8.46827 13.1638C8.47122 13.1745 8.47761 13.1838 8.48638 13.1903C8.49515 13.1968 8.50579 13.2 8.51656 13.1994C8.53449 13.1994 8.55105 13.1994 8.57071 13.1994H9.50891C9.51797 13.2 9.527 13.1978 9.53478 13.1929C9.54256 13.1881 9.5487 13.1809 9.55237 13.1723C9.55892 13.1584 9.56616 13.1449 9.57237 13.1307C9.63669 12.9856 9.74588 12.8667 9.88281 12.7925C9.9623 12.7413 10.0543 12.7147 10.1481 12.7157C10.1781 12.7174 10.2084 12.7157 10.2384 12.7157C10.3228 12.7142 10.4066 12.7305 10.4847 12.7634C10.5629 12.7963 10.6337 12.8452 10.693 12.9072C10.7736 12.9829 10.8357 13.0772 10.8745 13.1823C10.9132 13.2874 10.9275 13.4004 10.9162 13.5122C10.9065 13.672 10.8415 13.8228 10.733 13.9372C10.6438 14.0305 10.532 14.0975 10.4092 14.1312C10.3805 14.1405 10.351 14.1471 10.3212 14.1508C10.2795 14.1529 10.237 14.1508 10.195 14.1508ZM7.81739 13.2012C7.67425 13.1855 7.58077 13.3172 7.5856 13.4375C7.59112 13.5891 7.667 13.6799 7.81153 13.6831C7.94743 13.6859 8.04263 13.5998 8.04746 13.4375C8.05091 13.3179 7.96847 13.1919 7.81739 13.2012ZM10.4326 13.4411C10.4362 13.4128 10.4342 13.3841 10.4268 13.3567C10.4193 13.3293 10.4065 13.3037 10.3892 13.2816C10.3553 13.2418 10.31 13.2144 10.2598 13.2033C10.2097 13.1922 10.1575 13.1981 10.1108 13.22C10.0734 13.2331 10.0415 13.259 10.0204 13.2933C9.9718 13.3862 9.9611 13.4809 10.0163 13.5756C10.0336 13.6045 10.0569 13.6292 10.0845 13.6479C10.112 13.6666 10.1432 13.6789 10.1758 13.6838C10.2085 13.6888 10.2417 13.6863 10.2733 13.6766C10.305 13.6669 10.3341 13.6501 10.3588 13.6276C10.385 13.6051 10.4055 13.5764 10.4184 13.5439C10.4312 13.5113 10.4361 13.476 10.4326 13.4411Z" fill="#5571DB"/>
<path d="M2.8891 11.2197V13.3973C2.8891 13.419 2.8891 13.4407 2.8891 13.4624C2.88756 13.4904 2.87983 13.5176 2.8665 13.542C2.85318 13.5664 2.83461 13.5873 2.81223 13.6031C2.78985 13.619 2.76425 13.6293 2.73739 13.6334C2.71054 13.6374 2.68314 13.6351 2.65731 13.6265C2.63196 13.6166 2.60892 13.6013 2.58967 13.5816C2.57042 13.5619 2.55539 13.5383 2.54555 13.5122C2.53201 13.4743 2.52626 13.434 2.52865 13.3937C2.52865 13.0897 2.52865 12.7858 2.52865 12.4818C2.52865 11.4273 2.52761 10.3725 2.52554 9.31757C2.52794 9.27426 2.52481 9.23082 2.51623 9.18836C2.50761 9.15491 2.53382 8.92604 2.5452 8.89472C2.55984 8.85376 2.58797 8.81941 2.62467 8.79768C2.66136 8.77595 2.70429 8.76822 2.74595 8.77584C2.78189 8.78753 2.81406 8.80912 2.83898 8.83829C2.8639 8.86745 2.88063 8.90309 2.88737 8.94135C2.8895 8.97226 2.89008 9.00327 2.8891 9.03425V11.2211V11.2197Z" fill="#5571DB"/>
<path d="M14.44 10.3647C14.44 10.7865 14.4286 11.209 14.4427 11.6304C14.4603 12.1512 14.4448 12.6722 14.4551 13.193C14.4551 13.2766 14.4572 13.3603 14.4551 13.4443C14.4556 13.4771 14.4497 13.5098 14.4379 13.5404C14.4261 13.5709 14.4085 13.5987 14.3862 13.6222C14.3616 13.6472 14.3302 13.6636 14.2962 13.6693C14.2622 13.675 14.2273 13.6696 14.1964 13.6539C14.1673 13.6407 14.1424 13.6193 14.1246 13.5921C14.1068 13.5648 14.0969 13.533 14.0961 13.5001C14.0961 13.4692 14.0961 13.4378 14.0961 13.4069C14.0961 12.8641 14.1054 12.3209 14.0916 11.7781C14.0812 11.3628 14.0854 10.9474 14.0819 10.5324C14.0785 10.1174 14.0799 9.70697 14.0795 9.29445C14.0795 9.22611 14.0774 9.15777 14.0795 9.08943C14.0795 9.02676 14.1024 8.96639 14.1437 8.92036C14.1617 8.90064 14.184 8.88561 14.2088 8.87649C14.2335 8.86737 14.26 8.86443 14.2861 8.8679C14.3122 8.87137 14.3371 8.88116 14.3588 8.89646C14.3805 8.91177 14.3984 8.93215 14.411 8.95596C14.4304 8.99119 14.4403 9.03113 14.4396 9.07164C14.4396 9.17841 14.4396 9.2827 14.4396 9.38806V10.3654L14.44 10.3647Z" fill="#5571DB"/>
<path d="M7.81739 13.2011C7.96847 13.1905 8.05091 13.3179 8.04746 13.4375C8.04263 13.5998 7.94743 13.6866 7.81153 13.6831C7.66701 13.6799 7.59112 13.5891 7.5856 13.4375C7.58077 13.3172 7.67425 13.1855 7.81739 13.2011Z" fill="#111016"/>
<path d="M10.4326 13.441C10.4361 13.476 10.4312 13.5113 10.4184 13.5438C10.4055 13.5764 10.385 13.6051 10.3588 13.6275C10.3341 13.6501 10.305 13.6668 10.2733 13.6766C10.2417 13.6863 10.2085 13.6887 10.1758 13.6838C10.1432 13.6788 10.112 13.6666 10.0845 13.6479C10.0569 13.6292 10.0336 13.6045 10.0163 13.5756C9.96111 13.4809 9.9718 13.3862 10.0204 13.2933C10.0415 13.2589 10.0734 13.2331 10.1108 13.22C10.1575 13.1981 10.2097 13.1922 10.2599 13.2033C10.31 13.2144 10.3553 13.2418 10.3892 13.2816C10.4065 13.3037 10.4193 13.3293 10.4268 13.3567C10.4342 13.3841 10.4362 13.4128 10.4326 13.441Z" fill="#111016"/>
</g>
<defs>
<clipPath id="clip0_2_904">
<rect width="17" height="17" fill="white"/>
</clipPath>
</defs>
</svg>
