<svg width="13" height="13" viewBox="0 0 13 13" fill="none" xmlns="http://www.w3.org/2000/svg">
<g clip-path="url(#clip0_2_944)">
<path d="M5.44771 10.2457C4.20311 10.2877 3.06606 10.4034 2.21256 10.5768C1.75245 10.6701 1.39385 10.7759 1.1474 10.8911C0.939488 10.988 0.815401 11.0939 0.815401 11.1742C0.815401 11.3029 1.12023 11.524 1.97891 11.7211C2.72903 11.8942 3.77133 12.021 4.92894 12.0808C4.87141 11.9078 4.84227 11.7265 4.84267 11.544C4.84319 11.2958 4.89768 11.0508 5.00225 10.8264C5.10683 10.602 5.25893 10.4037 5.44771 10.2457Z" fill="#5571DB"/>
<path d="M7.93519 11.5446C7.93448 11.2714 7.85829 11.004 7.71526 10.7725C7.57223 10.541 7.36809 10.3548 7.12597 10.2349C6.71661 10.2269 6.28209 10.2269 5.87288 10.2349C5.6307 10.3547 5.4265 10.5409 5.28344 10.7724C5.14038 11.0039 5.06419 11.2714 5.06352 11.5446C5.06297 11.7554 5.10807 11.9638 5.19566 12.1551C5.31075 12.4074 5.49467 12.621 5.7257 12.7707C5.95673 12.9204 6.22521 13 6.49942 13C6.77364 13 7.04212 12.9204 7.27315 12.7707C7.50418 12.621 7.6881 12.4074 7.80319 12.1551C7.89067 11.9638 7.93572 11.7554 7.93519 11.5446Z" fill="#5571DB"/>
<path d="M11.022 11.7217C11.8808 11.5239 12.1855 11.3035 12.1855 11.1748C12.1855 11.0945 12.0614 10.9886 11.8535 10.8916C11.607 10.7765 11.2487 10.6707 10.7883 10.5774C9.93422 10.404 8.79732 10.2883 7.55315 10.2463C7.74201 10.4043 7.89419 10.6025 7.99884 10.8269C8.1035 11.0513 8.15805 11.2964 8.15863 11.5446C8.15902 11.7271 8.12988 11.9084 8.07236 12.0814C9.22925 12.0216 10.272 11.8948 11.022 11.7217Z" fill="#5571DB"/>
<path d="M11.6669 8.89039C11.089 8.4412 10.5434 8.01708 10.5434 7.32026V5.08641C10.5433 4.13984 10.2201 3.22247 9.62858 2.48999C9.03711 1.75751 8.21381 1.25505 7.29842 1.06789C7.28358 1.06493 7.26949 1.05894 7.25702 1.05028C7.24454 1.04161 7.23394 1.03046 7.22586 1.0175C7.21779 1.00453 7.21241 0.990038 7.21005 0.974895C7.20769 0.959752 7.20841 0.94428 7.21215 0.929428C7.23973 0.819454 7.24215 0.70455 7.21925 0.593481C7.19635 0.482411 7.14872 0.378112 7.08 0.288539C7.01129 0.198966 6.92329 0.126486 6.82274 0.0766286C6.72218 0.0267715 6.61171 0.000854492 6.49977 0.000854492C6.38783 0.000854492 6.27737 0.0267715 6.17681 0.0766286C6.07625 0.126486 5.98826 0.198966 5.91954 0.288539C5.85082 0.378112 5.80319 0.482411 5.78029 0.593481C5.75739 0.70455 5.75982 0.819454 5.78739 0.929428C5.79107 0.944278 5.79174 0.959732 5.78936 0.974852C5.78697 0.989972 5.78158 1.00444 5.77352 1.01739C5.76545 1.03034 5.75487 1.04149 5.74243 1.05017C5.72999 1.05885 5.71593 1.06488 5.70112 1.06789C4.78587 1.25517 3.96274 1.7577 3.37142 2.49017C2.78011 3.22265 2.45704 4.13995 2.45705 5.08641V7.31954C2.45705 8.01635 1.91067 8.44047 1.33337 8.88966C0.678004 9.3989 0.000347137 9.92577 0.000347137 10.9115C0.000347137 11.07 0.0450648 11.3095 0.25801 11.5492C0.379364 11.6858 0.53997 11.8078 0.749321 11.9218C0.91036 12.0092 1.36342 12.1614 2.11125 12.3007C2.98028 12.4631 4.05105 12.5711 5.22232 12.6151C5.14578 12.5216 5.07949 12.4199 5.02461 12.3119C3.81165 12.2536 2.71443 12.1225 1.92893 11.9417C1.02956 11.7342 0.591733 11.4834 0.591733 11.1748C0.591733 10.8396 1.1072 10.5716 2.16761 10.3563C3.12479 10.162 4.42963 10.039 5.84232 10.0099H5.84433C6.27151 10.0011 6.72774 10.0011 7.15507 10.0099H7.15708C8.56948 10.039 9.87461 10.162 10.8316 10.3563C11.8922 10.5716 12.4077 10.8393 12.4077 11.1748C12.4077 11.4834 11.9704 11.7342 11.0705 11.9417C10.285 12.1228 9.18761 12.2539 7.9745 12.3119C7.91977 12.42 7.85357 12.5216 7.77708 12.6151C8.94821 12.5714 10.019 12.4631 10.8882 12.3007C11.6358 12.1612 12.089 12.0092 12.2498 11.9218C12.4591 11.8078 12.6199 11.686 12.7411 11.5492C12.9543 11.3095 12.9991 11.07 12.9991 10.9115C13.0001 9.92519 12.3223 9.3989 11.6669 8.89039ZM5.44101 2.85007C5.38896 2.88724 5.33346 2.92018 5.2748 2.9553C5.17947 3.01214 5.08098 3.07088 4.99298 3.15046C4.77313 3.34896 4.6663 3.63536 4.59038 3.8891C4.57744 3.93282 4.56493 3.97655 4.55242 4.02027C4.49247 4.23088 4.43596 4.42968 4.32927 4.60195C4.16579 4.86619 3.93775 4.94693 3.79224 4.93585C3.55269 4.91749 3.40531 4.72117 3.39784 4.41116C3.37828 3.59659 3.94422 2.76671 4.87551 2.24581C5.02792 2.1604 5.15977 2.11799 5.27394 2.11799C5.33415 2.11736 5.39368 2.13082 5.44792 2.15734C5.57732 2.22147 5.67265 2.37363 5.66992 2.51136C5.66762 2.66556 5.5257 2.78944 5.4413 2.84935L5.44101 2.85007ZM4.09893 6.98053C4.07119 7.03373 4.03227 7.0801 3.98491 7.11637C3.94014 7.15071 3.88768 7.17329 3.83221 7.1821C3.69849 7.20206 3.53817 7.13502 3.43321 7.01478C3.34492 6.91421 3.28942 6.78159 3.25707 6.5959C3.21077 6.32919 3.24355 6.11858 3.3547 5.97007C3.42659 5.87359 3.54564 5.80975 3.68095 5.7943C3.69713 5.79251 3.7134 5.79159 3.72969 5.79153C3.8287 5.792 3.92478 5.82558 4.00304 5.88706C4.0813 5.94854 4.13734 6.03449 4.16248 6.13156V6.13389C4.20159 6.29027 4.19555 6.45453 4.18304 6.60888C4.17384 6.72912 4.15845 6.86758 4.09922 6.9798L4.09893 6.98053Z" fill="#5571DB"/>
</g>
<defs>
<clipPath id="clip0_2_944">
<rect width="13" height="13" fill="white"/>
</clipPath>
</defs>
</svg>
