<svg width="14" height="14" viewBox="0 0 14 14" fill="none" xmlns="http://www.w3.org/2000/svg">
<path d="M2.35628 4.28433C2.35628 1.92199 4.39766 0 6.90674 0C9.41581 0 11.4572 1.92199 11.4572 4.28433C11.4572 6.64667 9.41581 8.56867 6.90674 8.56867C4.39766 8.56867 2.35628 6.64667 2.35628 4.28433ZM13.7079 13.6794C13.668 13.7222 13.619 13.7564 13.5639 13.7797C13.5088 13.803 13.4491 13.8149 13.3887 13.8145H0.42533C0.364961 13.8149 0.305224 13.803 0.250163 13.7797C0.195101 13.7563 0.146002 13.7222 0.106188 13.6794C0.0665867 13.638 0.0368916 13.5891 0.0191078 13.5359C0.00132406 13.4827 -0.00413402 13.4266 0.0031024 13.3713C0.279316 11.2028 1.7259 9.27838 3.79892 8.30169C4.70112 8.92268 5.78972 9.25737 6.9073 9.25737C8.02488 9.25737 9.11349 8.92268 10.0157 8.30169C12.0887 9.27865 13.5356 11.203 13.8115 13.3713C13.8187 13.4266 13.8131 13.4828 13.7952 13.536C13.7774 13.5891 13.7476 13.6381 13.7079 13.6794Z" fill="#5571DB"/>
</svg>
