<svg width="13" height="15" viewBox="0 0 13 15" fill="none" xmlns="http://www.w3.org/2000/svg">
<path d="M11.6957 8.08203H7.53223V14.9992H11.6957C11.8415 14.9988 11.9812 14.9415 12.0844 14.8398C12.1875 14.7381 12.2456 14.6002 12.246 14.4564V8.62479C12.2456 8.48097 12.1875 8.34315 12.0844 8.24145C11.9812 8.13975 11.8415 8.08244 11.6957 8.08203Z" fill="#FACD5A"/>
<path d="M0.751953 8.62479V14.4564C0.752367 14.6005 0.810695 14.7386 0.91415 14.8403C1.01761 14.942 1.15775 14.9992 1.30385 14.9992H5.46729V8.08203H1.30385C1.15775 8.08203 1.01761 8.13916 0.91415 8.24091C0.810695 8.34265 0.752367 8.4807 0.751953 8.62479Z" fill="#FACD5A"/>
<path d="M0 5.1803V6.87644C0.000412534 7.02026 0.0585271 7.15808 0.161645 7.25978C0.264763 7.36148 0.404501 7.4188 0.550331 7.4192H5.46735V4.64062H0.550331C0.40504 4.64103 0.265769 4.69792 0.16274 4.79895C0.0597106 4.89999 0.00123421 5.03702 0 5.1803Z" fill="#FACD5A"/>
<path d="M12.4479 4.64063H7.52148L7.53243 7.43H12.4479C12.594 7.43 12.7341 7.37286 12.8376 7.27112C12.941 7.16938 12.9994 7.03133 12.9998 6.88723V5.1803C12.9985 5.03675 12.9398 4.89949 12.8365 4.79841C12.7331 4.69733 12.5934 4.64062 12.4479 4.64063Z" fill="#FACD5A"/>
<path d="M2.28395 4.02927C2.42439 4.10298 2.58362 4.1346 2.74204 4.12025H10.184C10.3627 4.13633 10.5423 4.10155 10.7015 4.02002C11.194 3.73322 11.5036 3.13186 11.5036 2.36552C11.5075 1.80568 11.3319 1.25895 11.0017 0.803532C10.8144 0.550899 10.5684 0.34615 10.2845 0.206393C10.0005 0.0666365 9.68678 -0.00407028 9.36946 0.000180968C9.31474 0.000180968 9.26002 0.000180968 9.20218 0.000180968C7.46676 0.11891 6.76164 1.74411 6.48492 2.79263C6.20975 1.74411 5.50464 0.11891 3.76922 0.000180968C3.71138 0.000180968 3.65665 0.000180968 3.60193 0.000180968C3.28461 -0.00407028 2.97087 0.0666365 2.68691 0.206393C2.40296 0.34615 2.15704 0.550899 1.9697 0.803532C1.63954 1.25895 1.46387 1.80568 1.46784 2.36552C1.46784 3.13957 1.78365 3.74555 2.28395 4.02927ZM9.27097 0.982397C9.3038 0.982397 9.33663 0.982397 9.36946 0.982397C9.53238 0.977675 9.69399 1.01246 9.8401 1.08371C9.98621 1.15495 10.1124 1.26047 10.2075 1.39101C10.4108 1.67713 10.5175 2.01922 10.5123 2.3686C10.5123 2.6662 10.406 3.23209 10.0089 3.23209H7.40109C7.58089 2.44416 8.06556 1.06412 9.27097 0.982397ZM2.77175 1.38793C2.86686 1.25739 2.99301 1.15187 3.13912 1.08062C3.28523 1.00938 3.44683 0.974592 3.60975 0.979313C3.64258 0.979313 3.67542 0.979313 3.70825 0.979313C4.91366 1.06104 5.39833 2.44107 5.58438 3.22592H2.96249C2.56537 3.22592 2.45906 2.66003 2.45906 2.36243C2.45681 2.01326 2.56623 1.67226 2.77175 1.38793Z" fill="#FACD5A"/>
</svg>
