<svg width="16" height="17" viewBox="0 0 16 17" fill="none" xmlns="http://www.w3.org/2000/svg">
<g clip-path="url(#clip0_2_824)">
<path d="M4 1.06445C4 0.48763 4.48668 0.0304175 5.06238 0.0663986L12 0.5L15.5 4V15.5H4L4.5 14L6.5 14.5L9 14L10 12.5L11 10.5L9.5 7L6 6L4 7V1.06445Z" fill="#5571DB"/>
<path d="M15.9999 9.67121C15.9999 11.4834 15.9999 13.2955 15.9999 15.1077C15.9999 15.5403 15.7722 15.7707 15.3315 15.7696C14.4982 15.7696 13.665 15.7561 12.8299 15.7568C11.1744 15.7568 9.52074 15.7663 7.86637 15.7692C6.78847 15.7714 5.7102 15.7692 4.6323 15.7692C4.13382 15.7692 3.92707 15.5652 3.92633 15.0733C3.92633 14.7315 3.91456 14.3894 3.93075 14.0477C3.9381 13.8949 3.8476 13.8319 3.75747 13.7546C3.7495 13.7458 3.73887 13.7399 3.72719 13.7376C3.71551 13.7354 3.70341 13.737 3.69273 13.7422C3.58236 13.7869 3.45765 14.0063 3.47972 14.1213C3.5338 14.4008 3.45728 14.6389 3.25421 14.8389C2.78822 15.297 2.32359 15.7558 1.8603 16.2154C1.66973 16.4044 1.4869 16.6011 1.29412 16.7872C1.15147 16.924 0.96113 17.0004 0.763084 17.0004C0.565038 17.0004 0.374698 16.924 0.232044 16.7872C-0.0663095 16.4941 -0.0854393 16.0147 0.209236 15.7161C0.866521 15.0505 1.52871 14.39 2.19581 13.7349C2.39778 13.5352 2.64757 13.4784 2.92569 13.5415C3.01104 13.5609 3.26451 13.3916 3.27886 13.3096C3.28622 13.2653 3.24722 13.247 3.22478 13.2206C2.67948 12.584 2.33408 11.8019 2.23149 10.9715C2.0424 9.44484 2.50667 8.13131 3.64711 7.08152C3.84908 6.89544 3.93369 6.72328 3.93185 6.44856C3.91861 4.53249 3.92486 2.61605 3.92486 0.69997C3.92486 0.211336 4.1375 -0.00038147 4.62973 -0.00038147C6.98835 -0.00038147 9.34673 -0.00038147 11.7049 -0.00038147C11.9307 -0.00038147 12.1265 0.0556613 12.2961 0.225987C13.3486 1.28274 14.4107 2.32961 15.4599 3.38892C15.589 3.51932 15.7082 3.65778 15.8487 3.77902C15.9819 3.89367 15.9959 4.064 15.9959 4.23396C15.9944 6.04637 15.9944 7.85867 15.9959 9.67084L15.9999 9.67121ZM4.51347 6.4427C4.56498 6.42182 4.59257 6.4123 4.61832 6.39948C5.80144 5.80242 7.02171 5.74235 8.25596 6.19802C9.20003 6.5476 9.99657 7.20657 10.5146 8.06663C11.0327 8.92669 11.2415 9.93665 11.1067 10.9305C10.9091 12.4254 10.1134 13.5506 8.78902 14.2883C8.51033 14.4381 8.21364 14.5519 7.9061 14.6271C7.66219 14.6909 7.41976 14.7594 7.17033 14.7909C6.28263 14.903 5.44459 14.7205 4.64518 14.3418C4.52083 14.2828 4.51495 14.3308 4.51642 14.4308C4.51936 14.6198 4.52598 14.8099 4.51274 14.9982C4.50244 15.1421 4.54364 15.1861 4.69263 15.1813C5.14587 15.1707 5.59947 15.1762 6.0538 15.1758C6.50814 15.1755 6.96101 15.1876 7.41497 15.1722C7.85018 15.1575 8.28428 15.1872 8.71949 15.1839C10.8952 15.1682 13.0708 15.1758 15.2465 15.1784C15.3587 15.1784 15.419 15.1751 15.419 15.029C15.4144 11.4474 15.4136 7.86551 15.4168 4.28341C15.4192 4.24473 15.413 4.20602 15.3988 4.16995C15.3845 4.13389 15.3626 4.10136 15.3344 4.07462C14.2021 2.95133 13.0714 1.82595 11.9425 0.698505C11.9086 0.660976 11.8669 0.63132 11.8202 0.611634C11.7736 0.591949 11.7231 0.582716 11.6725 0.584588C9.35041 0.588495 7.02845 0.588495 4.70661 0.584588C4.55578 0.584588 4.51274 0.617554 4.51311 0.772496C4.51899 2.42631 4.51642 4.07975 4.51605 5.73319L4.51347 6.4427ZM6.6976 6.49472C4.55357 6.47567 2.84733 8.17966 2.77743 10.2261C2.74064 11.2939 3.10264 12.2349 3.84172 13.0166C4.74046 13.9667 5.87612 14.3458 7.15083 14.2165C7.95245 14.1348 8.68307 13.7869 9.28235 13.2242C10.2937 12.2744 10.7134 11.0997 10.514 9.7386C10.3047 8.31446 8.99467 6.52842 6.6976 6.49472ZM2.91244 14.2711C2.90624 14.2387 2.89235 14.2082 2.87194 14.1822C2.85153 14.1562 2.82518 14.1355 2.79509 14.1217C2.69282 14.0685 2.63212 14.1381 2.57436 14.1967C1.94601 14.8202 1.3184 15.4445 0.691531 16.0696C0.60471 16.1557 0.548057 16.2498 0.648489 16.3542C0.748921 16.4586 0.84641 16.4051 0.932862 16.3176C1.55998 15.6922 2.18759 15.0673 2.81569 14.4429C2.86688 14.3985 2.90107 14.3378 2.91244 14.2711Z" fill="#5571DB"/>
<path d="M9.98893 4.67067H6.15117C6.09599 4.67067 6.0408 4.67067 5.98599 4.66773C5.81713 4.65528 5.7064 4.54979 5.6961 4.39448C5.6858 4.23917 5.7774 4.11463 5.94405 4.0846C6.02945 4.07392 6.11563 4.07085 6.20157 4.07544C8.73629 4.07544 11.2713 4.07471 13.8065 4.07324C13.8616 4.07324 13.9168 4.07324 13.9716 4.07324C14.2023 4.078 14.3325 4.18533 14.3355 4.37214C14.3384 4.55895 14.2097 4.66957 13.9768 4.66957C13.0029 4.66957 12.0292 4.66957 11.0558 4.66957L9.98893 4.67067Z" fill="#1B1921"/>
<path d="M8.79615 2.32539C7.8838 2.32539 6.97121 2.32539 6.05836 2.32539C5.79569 2.32539 5.64891 2.17191 5.70851 1.9591C5.73647 1.8602 5.78024 1.7873 5.9193 1.78071C7.78484 1.69317 9.65185 1.76606 11.5178 1.74408C11.7712 1.74115 11.8886 1.83053 11.8948 2.0166C11.9018 2.20927 11.787 2.32356 11.5711 2.32539C11.2032 2.32905 10.8353 2.32539 10.4674 2.32539H8.79615Z" fill="#1B1921"/>
<path d="M12.2776 7.00693C11.7077 7.00693 11.1371 7.00693 10.5676 7.00693C10.3554 7.00693 10.245 6.91828 10.2303 6.75052C10.2126 6.54613 10.327 6.42635 10.5511 6.42562C11.1515 6.42379 11.7522 6.42562 12.3537 6.42562C12.9114 6.42562 13.4691 6.42562 14.0272 6.42562C14.1655 6.42562 14.2674 6.48203 14.3138 6.60876C14.3361 6.66299 14.3413 6.72265 14.3289 6.77992C14.3165 6.83718 14.287 6.88937 14.2443 6.92964C14.1773 6.99777 14.0934 7.0029 14.0066 7.0029H12.2776V7.00693Z" fill="#1B1921"/>
<path d="M12.5051 14.0252C12.0209 14.0252 11.5371 14.0252 11.0534 14.0252C10.8445 14.0252 10.7168 13.9127 10.7168 13.7321C10.7168 13.5666 10.8489 13.4424 11.0508 13.4417C12.0429 13.4387 13.0351 13.4387 14.0274 13.4417C14.2165 13.4417 14.3519 13.5728 14.3313 13.7347C14.3121 13.8812 14.2032 14.0372 14.0112 14.0306C13.5098 14.0156 13.0072 14.0252 12.5051 14.0252Z" fill="#1B1921"/>
<path d="M12.8638 9.34358C12.49 9.34358 12.1163 9.34577 11.7425 9.34358C11.5335 9.34358 11.4085 9.23369 11.4044 9.06373C11.4 8.87435 11.5291 8.75751 11.7532 8.75714C12.4943 8.75543 13.2356 8.75543 13.977 8.75714C14.2084 8.75714 14.3287 8.86446 14.3324 9.06116C14.3357 9.24175 14.2136 9.34358 13.9851 9.34467C13.6113 9.34504 13.2376 9.34358 12.8638 9.34358Z" fill="#1B1921"/>
<path d="M12.9558 11.099C13.299 11.099 13.6419 11.099 13.9858 11.099C14.1871 11.099 14.3397 11.2345 14.3361 11.4038C14.332 11.5796 14.2003 11.6898 13.9836 11.6902C13.3038 11.6917 12.6238 11.6917 11.9437 11.6902C11.8591 11.6902 11.7704 11.6902 11.6954 11.6437C11.6383 11.6122 11.5943 11.5617 11.571 11.5011C11.5477 11.4404 11.5467 11.3735 11.5681 11.3122C11.6108 11.1657 11.7233 11.099 11.8745 11.0986C12.2351 11.0986 12.5957 11.0986 12.9565 11.0986L12.9558 11.099Z" fill="#1B1921"/>
<path d="M4.53122 10.0324C4.52497 9.87048 4.60296 9.77414 4.72951 9.73935C4.88255 9.69942 5.01242 9.76096 5.09924 9.89648C5.31997 10.2401 5.54008 10.5838 5.75959 10.9276C5.84494 11.0613 5.93912 11.1899 6.01453 11.3287C6.07155 11.4342 6.10687 11.4258 6.17824 11.3415C6.65477 10.7774 7.13363 10.2152 7.61483 9.65473C7.94004 9.27452 8.26635 8.89504 8.59009 8.51373C8.66808 8.42216 8.76262 8.37454 8.88071 8.39981C9.00506 8.42655 9.07937 8.5097 9.11542 8.63168C9.12659 8.66682 9.1287 8.70419 9.12157 8.74035C9.11443 8.77651 9.09828 8.81031 9.07459 8.83863C8.7343 9.23459 8.4124 9.64448 8.05776 10.0305C7.86756 10.2371 7.68987 10.4591 7.50593 10.6756C7.1248 11.1283 6.74355 11.5812 6.36218 12.0342C6.14807 12.2887 5.92366 12.2763 5.74377 11.9975C5.36706 11.4137 4.99096 10.8297 4.61547 10.2456C4.57206 10.1789 4.51025 10.11 4.53122 10.0324Z" fill="#5571DB"/>
</g>
<defs>
<clipPath id="clip0_2_824">
<rect width="16" height="17" fill="white"/>
</clipPath>
</defs>
</svg>
