<svg width="13" height="17" viewBox="0 0 13 17" fill="none" xmlns="http://www.w3.org/2000/svg">
<g clip-path="url(#clip0_2_949)">
<path d="M2.48259 9.53729C0.195367 7.1539 0.519391 4.10629 1.91078 2.26991C3.83967 -0.269762 7.44967 -0.752579 10.0361 1.20009C12.514 3.06809 12.9228 6.63108 10.9529 9.0461C10.7623 9.2796 10.445 9.44519 10.4583 9.80893C10.4389 9.89393 10.4108 9.97683 10.3745 10.0564C9.22227 10.7876 8.09676 11.4565 6.57195 11.1783C5.91914 11.0592 5.19008 11.2564 4.48486 11.0397C3.6119 10.7718 2.88857 10.3708 2.48259 9.53729Z" fill="#5571DB"/>
<path d="M10.4231 9.79773L10.4602 9.80889C10.9177 10.2071 10.992 10.7987 11.2226 11.3048C11.8354 12.6463 12.3967 14.011 12.999 15.4129C12.2986 15.4873 11.7115 15.3013 11.1254 15.1906C10.7099 15.1124 10.4974 15.212 10.2877 15.5506C9.98849 16.0344 9.63111 16.4809 9.2623 17C8.84011 16.52 8.70193 15.9636 8.49227 15.4539C7.93095 14.0928 7.20284 12.796 6.81973 11.3662C7.33055 11.0973 7.91951 11.0871 8.4551 10.8908C9.17558 10.6248 9.77502 10.1745 10.4231 9.79773Z" fill="#5571DB"/>
<path d="M6.18218 11.356C6.18789 11.9765 5.80764 12.4649 5.58368 13.0044C5.03666 14.3236 4.46199 15.6315 3.8797 16.986C3.36794 16.6353 3.11729 16.1395 2.83139 15.6892C2.55883 15.2585 2.29103 15.079 1.74115 15.2129C1.23891 15.3348 0.715713 15.4799 -0.00094986 15.399L2.49593 9.78751C3.00484 9.88053 3.32028 10.2899 3.73484 10.5317C4.49916 10.9773 5.38927 11.0248 6.18218 11.356Z" fill="#5571DB"/>
<path d="M6.18217 11.356C4.73646 11.3188 3.56425 10.6685 2.49688 9.78565L2.48259 9.53726C4.41911 11.0806 6.53192 11.543 8.90206 10.5773C9.43669 10.3596 9.81218 9.86193 10.4269 9.79774C9.43098 10.7783 8.21399 11.2657 6.82069 11.3662C6.61007 11.2062 6.39755 11.2164 6.18217 11.356Z" fill="#111016"/>
<path d="M11.3465 5.50542C11.357 6.12334 11.2426 6.73723 11.0099 7.31198C10.7772 7.88673 10.4308 8.41109 9.99036 8.85507C9.54995 9.29906 9.02423 9.65397 8.44324 9.89952C7.86225 10.1451 7.23738 10.2764 6.60435 10.2861C5.9716 10.3012 5.34202 10.1944 4.7516 9.97176C4.16118 9.74913 3.62152 9.41507 3.16347 8.98868C2.70542 8.56229 2.33797 8.05194 2.08214 7.48681C1.82631 6.92169 1.68713 6.31287 1.67253 5.69519C1.61631 3.00109 3.71293 0.878186 6.49095 0.824229C9.10982 0.769342 11.296 2.87736 11.3465 5.50542Z" fill="#5571DB"/>
<path d="M6.54717 1.21214C9.06979 1.24098 11.0177 3.20946 10.9701 5.67751C10.9253 8.03019 8.87348 9.96704 6.46903 9.92611C3.99693 9.88518 2.00799 7.90926 2.03658 5.52122C2.0428 4.94915 2.16442 4.38387 2.39449 3.85769C2.62455 3.33151 2.95856 2.85472 3.37742 2.45457C3.79629 2.05442 4.29182 1.73874 4.83569 1.52556C5.37956 1.31238 5.96113 1.20588 6.54717 1.21214Z" fill="#5571DB"/>
<path d="M4.42196 8.07394C4.42642 7.99288 4.43758 7.9123 4.45532 7.83299C4.88418 6.71665 4.58303 5.83847 3.57855 5.16959C3.41178 5.05889 3.20306 4.91748 3.30122 4.66724C3.38509 4.45513 3.61381 4.51653 3.78821 4.48118C3.81408 4.47489 3.84065 4.47176 3.86731 4.47188C5.01092 4.49793 5.76285 4.01511 6.08497 2.91272C6.14215 2.7155 6.21266 2.402 6.50714 2.41223C6.80162 2.42246 6.80258 2.74155 6.93124 2.92668C6.97671 2.99094 7.01205 3.06149 7.03607 3.13599C7.29815 4.02255 7.88234 4.43839 8.84679 4.4235C9.12697 4.41885 9.5787 4.34722 9.70449 4.67003C9.8341 5.01051 9.43003 5.21983 9.19654 5.37984C8.34741 5.96033 8.20256 6.69805 8.518 7.60693C8.59996 7.8423 8.71718 8.1651 8.518 8.35116C8.28642 8.55955 7.99289 8.33256 7.8061 8.18371C6.89121 7.45716 6.02969 7.63205 5.13767 8.22836C4.87654 8.39581 4.4191 8.73723 4.42196 8.07394Z" fill="#111016"/>
</g>
<defs>
<clipPath id="clip0_2_949">
<rect width="13" height="17" fill="white"/>
</clipPath>
</defs>
</svg>
