<svg width="15" height="15" viewBox="0 0 15 15" fill="none" xmlns="http://www.w3.org/2000/svg">
<g clip-path="url(#clip0_2_876)">
<path fill-rule="evenodd" clip-rule="evenodd" d="M7.31087 4.44611C6.74427 4.44611 6.19039 4.61412 5.71928 4.92891C5.24817 5.24369 4.88099 5.69111 4.66416 6.21458C4.44733 6.73805 4.3906 7.31406 4.50114 7.86977C4.61168 8.42549 4.88452 8.93594 5.28517 9.33659C5.68581 9.73723 6.19627 10.0101 6.75198 10.1206C7.30769 10.2312 7.8837 10.1744 8.40717 9.95759C8.93064 9.74077 9.37806 9.37358 9.69284 8.90247C10.0076 8.43136 10.1756 7.87748 10.1756 7.31088C10.1754 6.55119 9.87344 5.82269 9.33626 5.2855C8.79907 4.74831 8.07057 4.44639 7.31087 4.44611Z" fill="#5571DB"/>
<path fill-rule="evenodd" clip-rule="evenodd" d="M10.2677 12.0386L11.2425 13.0133C11.29 13.0609 11.3466 13.0984 11.409 13.1236C11.4713 13.1487 11.5381 13.1609 11.6053 13.1596C11.7405 13.1588 11.8702 13.1065 11.9682 13.0133L13.0133 11.9682C13.1071 11.8717 13.1595 11.7425 13.1595 11.608C13.1595 11.4735 13.1071 11.3443 13.0133 11.2479L12.0386 10.2731C11.998 10.2327 11.9718 10.1801 11.964 10.1234C11.9562 10.0667 11.9672 10.0089 11.9952 9.95903C12.2122 9.57942 12.3797 9.17357 12.4935 8.75138C12.5088 8.69702 12.5413 8.64911 12.5863 8.61491C12.6312 8.58071 12.6861 8.56208 12.7426 8.56184H14.1181C14.185 8.56191 14.2512 8.54879 14.313 8.52324C14.3748 8.49768 14.4309 8.46019 14.4782 8.4129C14.5255 8.36562 14.563 8.30947 14.5885 8.24768C14.6141 8.18589 14.6272 8.11966 14.6272 8.05279V6.57437C14.6272 6.5075 14.6141 6.44127 14.5885 6.37948C14.563 6.31768 14.5255 6.26154 14.4782 6.21425C14.4309 6.16697 14.3748 6.12948 14.313 6.10392C14.2512 6.07836 14.185 6.06524 14.1181 6.06531H12.7426C12.6857 6.06666 12.6301 6.04863 12.5848 6.01419C12.5395 5.97975 12.5073 5.93094 12.4935 5.87577C12.3773 5.4544 12.21 5.04883 11.9952 4.66813C11.9673 4.61818 11.9565 4.5605 11.9643 4.50382C11.9721 4.44715 11.9982 4.39456 12.0386 4.35403L13.0133 3.37925C13.1071 3.28281 13.1595 3.15362 13.1595 3.01912C13.1595 2.88462 13.1071 2.75543 13.0133 2.65899L11.9682 1.61381C11.8717 1.52005 11.7425 1.4676 11.608 1.4676C11.4735 1.4676 11.3443 1.52005 11.2479 1.61381L10.2731 2.58859C10.232 2.62791 10.1795 2.65326 10.1231 2.66103C10.0667 2.66881 10.0093 2.65862 9.95903 2.63191C9.57942 2.41492 9.17356 2.24748 8.75138 2.13369C8.69701 2.1184 8.64911 2.08581 8.61491 2.04086C8.58071 1.99592 8.56208 1.94106 8.56184 1.88458V0.509053C8.56191 0.442184 8.54879 0.375956 8.52323 0.314163C8.49767 0.25237 8.46018 0.196224 8.4129 0.148939C8.36561 0.101655 8.30947 0.0641616 8.24767 0.0386045C8.18588 0.0130474 8.11965 -7.09632e-05 8.05278 2.88697e-07H6.57436C6.50749 -7.09632e-05 6.44127 0.0130474 6.37947 0.0386045C6.31768 0.0641616 6.26153 0.101655 6.21425 0.148939C6.16697 0.196224 6.12947 0.25237 6.10391 0.314163C6.07836 0.375956 6.06524 0.442184 6.06531 0.509053V1.88458C6.06666 1.94144 6.04863 1.99708 6.01419 2.04235C5.97975 2.08761 5.93093 2.11982 5.87577 2.13369C5.45473 2.25083 5.04928 2.41811 4.66812 2.63191C4.61817 2.65981 4.56049 2.67068 4.50382 2.66286C4.44714 2.65504 4.39456 2.62897 4.35403 2.58859L3.37924 1.61381C3.28281 1.52005 3.15361 1.4676 3.01911 1.4676C2.88462 1.4676 2.75542 1.52005 2.65899 1.61381L1.6138 2.65899C1.56622 2.70612 1.52845 2.76221 1.50267 2.82403C1.4769 2.88584 1.46363 2.95215 1.46363 3.01912C1.46363 3.08609 1.4769 3.1524 1.50267 3.21421C1.52845 3.27602 1.56622 3.33212 1.6138 3.37925L2.58859 4.35403C2.6279 4.39519 2.65325 4.44769 2.66103 4.50407C2.66881 4.56046 2.65862 4.61786 2.63191 4.66813C2.41492 5.04773 2.24748 5.45359 2.13369 5.87577C2.11839 5.93014 2.08581 5.97805 2.04086 6.01224C1.99591 6.04644 1.94105 6.06507 1.88458 6.06531H0.509049C0.44218 6.06524 0.375952 6.07836 0.314159 6.10392C0.252366 6.12948 0.19622 6.16697 0.148936 6.21425C0.101652 6.26154 0.0641578 6.31768 0.0386007 6.37948C0.0130436 6.44127 -7.47779e-05 6.5075 -3.526e-06 6.57437V8.05279C-7.47779e-05 8.11966 0.0130436 8.18589 0.0386007 8.24768C0.0641578 8.30947 0.101652 8.36562 0.148936 8.4129C0.19622 8.46019 0.252366 8.49768 0.314159 8.52324C0.375952 8.54879 0.44218 8.56191 0.509049 8.56184H1.88458C1.94126 8.56126 1.99651 8.57958 2.04163 8.61391C2.08674 8.64823 2.11913 8.6966 2.13369 8.75138C2.25222 9.17194 2.41943 9.57723 2.63191 9.95903C2.65981 10.009 2.67067 10.0667 2.66285 10.1233C2.65504 10.18 2.62897 10.2326 2.58859 10.2731L1.6138 11.2479C1.56622 11.295 1.52845 11.3511 1.50267 11.4129C1.4769 11.4748 1.46363 11.5411 1.46363 11.608C1.46363 11.675 1.4769 11.7413 1.50267 11.8031C1.52845 11.8649 1.56622 11.921 1.6138 11.9682L2.65899 13.0133C2.70612 13.0609 2.76221 13.0987 2.82402 13.1245C2.88583 13.1503 2.95214 13.1635 3.01911 13.1635C3.08609 13.1635 3.1524 13.1503 3.21421 13.1245C3.27602 13.0987 3.33211 13.0609 3.37924 13.0133L4.35403 12.0386C4.39518 11.9992 4.44768 11.9739 4.50407 11.9661C4.56046 11.9583 4.61786 11.9685 4.66812 11.9952C5.04773 12.2122 5.45359 12.3797 5.87577 12.4935C5.93014 12.5088 5.97804 12.5413 6.01224 12.5863C6.04644 12.6312 6.06507 12.6861 6.06531 12.7426V14.1181C6.06524 14.185 6.07836 14.2512 6.10391 14.313C6.12947 14.3748 6.16697 14.4309 6.21425 14.4782C6.26153 14.5255 6.31768 14.563 6.37947 14.5886C6.44127 14.6141 6.50749 14.6272 6.57436 14.6272H8.05278C8.11965 14.6272 8.18588 14.6141 8.24767 14.5886C8.30947 14.563 8.36561 14.5255 8.4129 14.4782C8.46018 14.4309 8.49767 14.3748 8.52323 14.313C8.54879 14.2512 8.56191 14.185 8.56184 14.1181V12.7426C8.56126 12.6859 8.57958 12.6306 8.6139 12.5855C8.64822 12.5404 8.6966 12.508 8.75138 12.4935C9.17194 12.3749 9.57723 12.2077 9.95903 11.9952C10.0084 11.9686 10.0649 11.9585 10.1205 11.9663C10.176 11.9741 10.2276 11.9994 10.2677 12.0386ZM7.31087 10.7009C6.64144 10.7009 5.98705 10.5024 5.43045 10.1305C4.87384 9.75862 4.44002 9.23001 4.18385 8.61154C3.92767 7.99307 3.86064 7.31253 3.99124 6.65597C4.12184 5.99941 4.4442 5.39632 4.91755 4.92297C5.3909 4.44962 5.99399 4.12726 6.65055 3.99666C7.30711 3.86606 7.98765 3.93309 8.60612 4.18927C9.22459 4.44544 9.7532 4.87926 10.1251 5.43587C10.497 5.99247 10.6955 6.64686 10.6955 7.31629C10.6942 8.21356 10.3372 9.07371 9.70276 9.70818C9.06829 10.3426 8.20814 10.6997 7.31087 10.7009Z" fill="#5571DB"/>
</g>
<defs>
<clipPath id="clip0_2_876">
<rect width="14.6272" height="14.6272" fill="white"/>
</clipPath>
</defs>
</svg>
