<svg width="15" height="15" viewBox="0 0 15 15" fill="none" xmlns="http://www.w3.org/2000/svg">
<g clip-path="url(#clip0_2_971)">
<path d="M7.57094 6.03376C7.57701 6.03376 7.57701 6.03376 7.5832 6.03375C7.70849 6.03372 7.8329 6.03572 7.95763 6.04873C7.97076 6.05009 7.98388 6.05139 7.99701 6.05269C8.1183 6.06479 8.23868 6.08072 8.35854 6.10289C8.37032 6.10507 8.3821 6.10721 8.39388 6.10936C8.83165 6.18959 9.26011 6.34624 9.645 6.57001C9.64973 6.57275 9.65447 6.57549 9.65935 6.57832C9.71705 6.6118 9.77393 6.64627 9.82956 6.6831C9.84038 6.69026 9.85124 6.69737 9.86209 6.70448C9.91185 6.73721 9.96044 6.77135 10.0085 6.80657C10.0203 6.81521 10.0321 6.8238 10.044 6.83239C10.0891 6.86522 10.133 6.89905 10.1761 6.93454C10.1943 6.94954 10.2129 6.96401 10.2316 6.97845C10.2581 6.99908 10.2831 7.0208 10.3078 7.04366C10.3185 7.05358 10.3293 7.06326 10.3403 7.07282C10.397 7.12219 10.4533 7.17255 10.506 7.22616C10.5147 7.23476 10.5238 7.2427 10.5331 7.25063C10.5756 7.28723 10.6156 7.32795 10.6518 7.37073C10.6616 7.38182 10.672 7.39213 10.6825 7.40251C10.6991 7.41895 10.7148 7.43583 10.73 7.45358C10.7403 7.46533 10.7509 7.47676 10.7615 7.48818C10.7866 7.51503 10.8106 7.54235 10.8337 7.57101C10.8439 7.58364 10.8543 7.59606 10.8649 7.60842C10.8934 7.6417 10.9206 7.67575 10.9475 7.71034C10.9555 7.72064 10.9636 7.73088 10.9717 7.7411C11.0081 7.78712 11.0422 7.83418 11.075 7.88286C11.0876 7.90161 11.1007 7.9199 11.1141 7.93813C11.2034 8.06164 11.2783 8.19575 11.35 8.33001C11.3526 8.33478 11.3551 8.33955 11.3578 8.34446C11.5388 8.6813 11.6629 9.05089 11.8039 9.8737C11.805 9.88495 11.8061 9.8962 11.8073 9.90745C11.8347 10.1821 11.8332 10.4705 11.805 10.745C11.8046 10.7493 11.8042 10.7535 11.8037 10.7579C11.7598 11.1958 11.6579 11.6318 11.445 12.105C11.4425 12.1104 11.44 12.1158 11.4374 12.1213C11.3438 12.3215 11.2349 12.5127 11.11 12.695C11.1077 12.6984 11.1053 12.7019 11.1029 12.7054C11.0634 12.7628 11.0214 12.8182 10.9789 12.8734C10.9713 12.8833 10.9638 12.8932 10.9562 12.9031C10.8892 12.9913 10.8172 13.0756 10.742 13.1569C10.7323 13.1675 10.7228 13.1782 10.7134 13.1891C10.6909 13.2151 10.6671 13.2401 10.6435 13.2652C10.6314 13.2781 10.6194 13.2911 10.6074 13.3042C10.583 13.3309 10.559 13.357 10.5311 13.3802C10.515 13.3944 10.5001 13.4097 10.485 13.425C10.464 13.4462 10.443 13.4669 10.4202 13.4862C10.4095 13.4955 10.3991 13.5051 10.3887 13.5147C10.3627 13.5388 10.3361 13.5616 10.3085 13.5838C10.2947 13.5953 10.2816 13.6072 10.2684 13.6194C10.2401 13.6454 10.2103 13.669 10.1798 13.6924C10.1695 13.7004 10.1592 13.7085 10.1489 13.7166C9.95615 13.8678 9.75122 14.0027 9.53459 14.1173C9.52032 14.1248 9.50607 14.1325 9.49184 14.1401C9.0782 14.3605 8.61552 14.4993 7.835 14.59C7.82865 14.5904 7.82231 14.5909 7.81577 14.5913C7.7363 14.5963 7.65672 14.5959 7.57713 14.5959C7.56085 14.5959 7.54458 14.596 7.5283 14.596C7.37881 14.5967 7.22975 14.5916 7.08094 14.5766C7.07684 14.5762 7.07274 14.5758 7.06852 14.5753C6.90729 14.5591 6.74768 14.5336 6.58935 14.4992C6.58494 14.4983 6.58053 14.4973 6.57598 14.4964C6.56782 14.4946 6.55966 14.4928 6.55151 14.491C6.50954 14.4819 6.47847 14.4855 6.43844 14.5C6.42906 14.5033 6.41968 14.5066 6.41031 14.5099C6.40538 14.5116 6.40044 14.5134 6.39536 14.5152C6.26986 14.5596 6.14301 14.5986 6.015 14.635C6.00915 14.6367 6.00915 14.6367 6.00319 14.6384C5.59381 14.7554 5.15822 14.8183 4.595 14.78C4.5852 14.779 4.5852 14.779 4.5752 14.7779C4.32077 14.7498 4.06912 14.6836 3.835 14.58C3.84185 14.5663 3.84925 14.565 3.86322 14.5589C3.87055 14.5557 3.87055 14.5557 3.87802 14.5524C3.88331 14.55 3.88861 14.5477 3.89406 14.5453C4.06367 14.469 4.22098 14.3659 4.35844 14.2405C4.36828 14.2316 4.37829 14.223 4.38844 14.2144C4.43549 14.1734 4.48001 14.1279 4.52 14.08C4.52576 14.0734 4.52576 14.0734 4.53164 14.0667C4.57382 14.0182 4.61199 13.9668 4.65 13.915C4.65264 13.9115 4.65527 13.9079 4.65799 13.9042C4.72163 13.8182 4.77647 13.7254 4.825 13.63C4.79943 13.6065 4.77361 13.5836 4.74656 13.5619C4.72788 13.5468 4.71056 13.5312 4.69392 13.5139C4.68501 13.505 4.67579 13.4968 4.66625 13.4886C4.60476 13.4351 4.54703 13.3775 4.48937 13.32C4.48644 13.3171 4.48351 13.3142 4.48049 13.3112C4.42287 13.2537 4.42287 13.2537 4.3971 13.2232C4.38929 13.2142 4.38101 13.2059 4.3725 13.1975C4.35732 13.1826 4.34327 13.1669 4.32937 13.1508C4.31913 13.139 4.30864 13.1275 4.29812 13.1159C4.27865 13.0944 4.26016 13.0721 4.24187 13.0495C4.23142 13.0367 4.2208 13.0241 4.21006 13.0116C4.09425 12.876 3.99268 12.729 3.895 12.58C3.891 12.5739 3.891 12.5739 3.88692 12.5677C3.80992 12.4498 3.74313 12.3258 3.68 12.2C3.67614 12.1924 3.67614 12.1924 3.6722 12.1846C3.51123 11.8638 3.4013 11.5172 3.335 11.165C3.3343 11.1613 3.33359 11.1576 3.33287 11.1538C3.30328 10.9978 3.2843 10.8404 3.27125 10.6822C3.27095 10.6787 3.27066 10.6751 3.27035 10.6715C3.26064 10.5535 3.25896 10.4353 3.25906 10.3169C3.25906 10.3135 3.25906 10.31 3.25907 10.3065C3.25912 10.1908 3.26087 10.0754 3.27 9.96001C3.27033 9.95586 3.27066 9.95171 3.27099 9.94744C3.29192 9.68632 3.32788 9.42231 3.4 9.17001C3.40177 9.16379 3.40177 9.16379 3.40358 9.15744C3.50181 8.81352 3.63334 8.48014 3.81747 8.17261C3.82413 8.16146 3.83072 8.15028 3.83727 8.13907C3.86417 8.09324 3.89346 8.04913 3.92321 8.0051C3.93223 7.9917 3.94111 7.97819 3.95 7.9647C3.97084 7.93343 3.99255 7.90279 4.01432 7.87216C4.02461 7.85767 4.0348 7.84311 4.0449 7.82849C4.07466 7.78553 4.10594 7.74446 4.13924 7.70419C4.15403 7.6863 4.16829 7.66805 4.1825 7.6497C4.2246 7.59565 4.27023 7.54459 4.31684 7.4944C4.3268 7.48351 4.33656 7.47251 4.34624 7.46136C4.40424 7.39501 4.46655 7.33266 4.52891 7.27045C4.54231 7.25708 4.55568 7.24368 4.56905 7.23027C4.57769 7.22164 4.58634 7.213 4.59498 7.20437C4.60088 7.19845 4.60088 7.19845 4.6069 7.19242C4.62773 7.17168 4.64894 7.15171 4.67125 7.13257C4.68505 7.12065 4.69826 7.10811 4.71156 7.09563C4.73553 7.07333 4.76013 7.05219 4.78566 7.03169C4.80208 7.01832 4.81806 7.0045 4.83406 6.99063C4.86543 6.96357 4.89764 6.93781 4.93041 6.91247C4.94069 6.90448 4.95088 6.89639 4.96107 6.88829C5.00739 6.85164 5.05479 6.81738 5.10379 6.7844C5.12005 6.77345 5.1359 6.76211 5.15156 6.75032C5.18274 6.72731 5.21568 6.70702 5.24845 6.68638C5.27194 6.67157 5.29523 6.65662 5.31808 6.64085C5.36799 6.60648 5.42114 6.57779 5.47421 6.54867C5.48904 6.54053 5.50384 6.53234 5.51863 6.52413C5.54563 6.50919 5.57276 6.49451 5.6 6.48001C5.60412 6.47782 5.60823 6.47563 5.61248 6.47337C5.81757 6.36521 6.03884 6.28097 6.2602 6.21302C6.26926 6.21024 6.27832 6.20743 6.28737 6.20463C6.7028 6.07653 7.13802 6.03387 7.57094 6.03376Z" fill="#5571DB"/>
<path d="M7.31505 0.223073C7.33252 0.223134 7.34998 0.223171 7.36745 0.223204C7.53141 0.223553 7.69493 0.224844 7.85841 0.238615C7.87639 0.240124 7.89437 0.241572 7.91235 0.243018C8.40035 0.282745 8.88081 0.369618 9.60642 0.560982C9.61604 0.563833 9.62566 0.56668 9.63528 0.569523C9.8393 0.629836 10.0416 0.691956 10.2368 0.777117C10.2547 0.784885 10.2727 0.792469 10.2907 0.800008C10.4479 0.866236 10.6007 0.942579 10.75 1.02501C10.7551 1.02782 10.7603 1.03064 10.7656 1.03354C10.9125 1.11405 11.0563 1.20093 11.195 1.29501C11.1987 1.29749 11.2023 1.29997 11.2061 1.30253C11.3491 1.39963 11.4884 1.50108 11.6223 1.61057C11.6366 1.6223 11.6511 1.63384 11.6656 1.64532C11.6947 1.66851 11.7228 1.69288 11.7509 1.71719C11.7598 1.72486 11.7688 1.73248 11.7778 1.74009C11.8126 1.76964 11.8465 1.79991 11.88 1.83104C11.893 1.84315 11.9061 1.85505 11.9194 1.86688C11.9845 1.92537 12.0471 1.98618 12.109 2.04805C12.1224 2.06147 12.1359 2.07485 12.1493 2.08823C12.1579 2.09676 12.1664 2.1053 12.175 2.11384C12.179 2.11783 12.183 2.12182 12.1872 2.12594C12.1909 2.12962 12.1945 2.13329 12.1983 2.13708C12.2031 2.14193 12.2031 2.14193 12.2081 2.14687C12.215 2.15501 12.215 2.15501 12.215 2.16501C12.2183 2.16501 12.2216 2.16501 12.225 2.16501C12.2324 2.17253 12.2324 2.17253 12.2409 2.18282C12.2527 2.19664 12.2645 2.20984 12.2775 2.22251C12.2925 2.23724 12.3063 2.25266 12.32 2.26856C12.3297 2.27969 12.3397 2.29057 12.3498 2.30141C12.3738 2.32733 12.3966 2.35386 12.4187 2.38141C12.4305 2.39564 12.4428 2.40924 12.4553 2.42282C12.474 2.44322 12.4917 2.46408 12.5088 2.48585C12.5199 2.49983 12.5311 2.51364 12.5424 2.52744C12.5807 2.57434 12.618 2.622 12.655 2.67001C12.6599 2.67637 12.6599 2.67637 12.6649 2.68285C12.7045 2.73422 12.7433 2.78596 12.7804 2.83917C12.7957 2.86112 12.8114 2.88274 12.8272 2.90438C12.994 3.13445 13.1403 3.37781 13.28 3.62501C13.2831 3.63049 13.2862 3.63596 13.2894 3.64161C13.4128 3.85984 13.5231 4.08582 13.6254 4.31465C13.63 4.32498 13.6346 4.33531 13.6393 4.34564C13.7504 4.59303 13.8485 4.84577 13.94 5.10102C13.9451 5.11524 13.9502 5.12947 13.9553 5.14369C13.9654 5.17183 13.9755 5.19998 13.9856 5.22813C13.9872 5.2324 13.9887 5.23667 13.9903 5.24106C13.9932 5.24935 13.9962 5.25765 13.9992 5.26594C14.002 5.27391 14.0049 5.28188 14.0078 5.28983C14.015 5.3098 14.0214 5.32968 14.0268 5.35022C14.0368 5.39217 14.0368 5.39217 14.0623 5.42516C14.0772 5.43149 14.091 5.43506 14.1069 5.43813C14.1177 5.44096 14.1285 5.44384 14.1393 5.44677C14.1445 5.4481 14.1498 5.44944 14.1552 5.45081C14.2832 5.48705 14.3965 5.59502 14.465 5.70501C14.467 5.7082 14.469 5.71138 14.4711 5.71467C14.5908 5.90419 14.6759 6.10764 14.73 6.32501C14.7314 6.33055 14.7328 6.3361 14.7342 6.34181C14.7868 6.55632 14.8062 6.77737 14.8059 6.99782C14.8059 7.00315 14.8059 7.00849 14.8059 7.01398C14.8058 7.10964 14.803 7.20469 14.795 7.30001C14.7947 7.30376 14.7944 7.30752 14.794 7.31139C14.7561 7.75588 14.6522 8.18985 14.52 8.61501C14.5187 8.61926 14.5174 8.62351 14.516 8.62789C14.4575 8.81583 14.3914 9.00163 14.3205 9.18522C14.3169 9.19434 14.3134 9.20346 14.3099 9.21259C14.3082 9.21701 14.3065 9.22143 14.3047 9.22599C14.2935 9.25509 14.2833 9.28441 14.2736 9.31399C14.2341 9.43097 14.2341 9.43097 14.1915 9.45697C14.1754 9.46473 14.1593 9.47074 14.1423 9.47602C14.13 9.48002 14.1186 9.48489 14.1068 9.49036C13.715 9.67208 13.2425 9.60965 12.8487 9.46918C12.8293 9.46206 12.8099 9.45493 12.7907 9.44738C12.7666 9.43815 12.7453 9.43355 12.7196 9.4314C12.6973 9.42817 12.6838 9.41159 12.67 9.39501C12.6595 9.37905 12.652 9.36276 12.645 9.34501C12.6433 9.34069 12.6415 9.33637 12.6397 9.33192C12.4908 8.90765 12.6146 8.3118 12.6625 7.86376C12.6632 7.85719 12.6632 7.85719 12.6639 7.8505C12.6702 7.79127 12.6767 7.73206 12.6835 7.67288C12.6845 7.66417 12.6855 7.65545 12.6865 7.64673C12.7092 7.44727 12.7092 7.44727 12.7307 7.37203C12.7364 7.35192 12.7416 7.33167 12.7469 7.31143C12.748 7.30726 12.7491 7.30309 12.7502 7.29879C12.8539 6.89917 12.9019 6.47253 12.895 6.06001C12.8949 6.05156 12.8949 6.05156 12.8947 6.04294C12.8872 5.62693 12.8146 5.21914 12.5314 4.46354C12.5251 4.45012 12.5188 4.43666 12.5126 4.42319C12.485 4.36383 12.4548 4.30621 12.4229 4.24908C12.4149 4.23487 12.4071 4.22062 12.3992 4.20638C12.3619 4.13925 12.3219 4.0743 12.28 4.01001C12.2756 4.00315 12.2712 3.9963 12.2668 3.98944C12.2376 3.94454 12.2056 3.90213 12.1727 3.85991C12.1636 3.84815 12.1545 3.83633 12.1454 3.8245C12.1043 3.7708 12.0625 3.71765 12.02 3.66501C12.0176 3.66208 12.0153 3.65916 12.0129 3.65614C11.9821 3.61806 11.9512 3.5802 11.9194 3.54295C11.905 3.52601 11.8909 3.50887 11.8769 3.49157C11.859 3.46962 11.8404 3.44862 11.8213 3.42772C11.8094 3.41432 11.7981 3.40053 11.7869 3.38657C11.7716 3.36765 11.7558 3.35018 11.7383 3.33327C11.7298 3.32479 11.7219 3.31598 11.7141 3.30688C11.6885 3.27724 11.6617 3.2487 11.635 3.22001C11.632 3.21681 11.6291 3.21361 11.626 3.21031C11.6168 3.20041 11.6076 3.19052 11.5984 3.18063C11.5956 3.1776 11.5928 3.17457 11.5899 3.17145C11.5761 3.1566 11.5621 3.14203 11.5476 3.12778C11.5355 3.11582 11.5242 3.10353 11.5131 3.09065C11.4932 3.06761 11.4719 3.04616 11.4503 3.0247C11.4465 3.02088 11.4427 3.01706 11.4388 3.01312C11.4213 2.99562 11.4036 2.97854 11.3848 2.96237C11.3591 2.94019 11.3356 2.91583 11.3118 2.89159C11.2918 2.87138 11.2714 2.85214 11.2498 2.83361C11.2331 2.81896 11.2171 2.80349 11.2009 2.78813C11.1741 2.76272 11.1468 2.73859 11.1179 2.71554C11.1039 2.70415 11.0907 2.69219 11.0775 2.68001C11.0554 2.65971 11.0327 2.64054 11.0094 2.62171C10.9966 2.61132 10.9841 2.60076 10.9716 2.59008C10.9383 2.56166 10.9043 2.53439 10.8697 2.50757C10.8593 2.49944 10.8488 2.49127 10.8384 2.48309C10.5735 2.27603 10.2923 2.09212 9.995 1.93501C9.99006 1.93239 9.98511 1.92977 9.98002 1.92708C9.94678 1.90952 9.91342 1.89221 9.88 1.87501C9.87546 1.87265 9.87092 1.8703 9.86625 1.86787C9.6324 1.74686 9.38478 1.6504 9.13406 1.57063C9.1299 1.56931 9.12575 1.56798 9.12146 1.56661C8.77958 1.45789 8.42382 1.38452 8.06607 1.3559C8.05861 1.3553 8.05114 1.35469 8.04367 1.35408C7.90095 1.34246 7.75902 1.33731 7.61583 1.33777C7.60031 1.33782 7.58479 1.33785 7.56927 1.33787C7.41389 1.33815 7.25986 1.34184 7.10524 1.35839C7.08935 1.36008 7.07346 1.36167 7.05757 1.36326C6.64733 1.40436 6.24222 1.49288 5.84887 1.61568C5.83526 1.61993 5.82164 1.62415 5.80802 1.62838C5.50812 1.72171 5.21487 1.83795 4.93 1.97001C4.92202 1.97369 4.91405 1.97738 4.90607 1.98107C4.8077 2.0266 4.71071 2.0741 4.615 2.12501C4.60418 2.13071 4.59336 2.1364 4.58254 2.1421C4.5085 2.1813 4.43637 2.22318 4.36459 2.26631C4.35224 2.27367 4.33985 2.2809 4.32736 2.28802C4.25933 2.32685 4.19482 2.37112 4.13 2.41501C4.12541 2.4181 4.12083 2.4212 4.11611 2.42438C4.06217 2.4608 4.00902 2.49822 3.95647 2.53662C3.94867 2.54233 3.94086 2.54802 3.93304 2.5537C3.88542 2.58833 3.83851 2.62356 3.79279 2.66065C3.77792 2.67272 3.76284 2.68449 3.74769 2.69621C3.71833 2.71895 3.69051 2.74267 3.66328 2.76798C3.64975 2.78023 3.6358 2.79171 3.62156 2.80313C3.60123 2.81954 3.58267 2.83676 3.56449 2.8555C3.55181 2.8682 3.53827 2.87974 3.52467 2.89143C3.51233 2.90238 3.50088 2.91406 3.48933 2.92584C3.48053 2.93449 3.47145 2.9425 3.46205 2.9505C3.43681 2.97245 3.41328 2.996 3.38969 3.0197C3.38539 3.02397 3.3811 3.02825 3.37667 3.03265C3.3544 3.05496 3.33294 3.07762 3.31241 3.10153C3.30316 3.11211 3.29328 3.12186 3.28312 3.13157C3.26258 3.15184 3.24456 3.17345 3.22654 3.19596C3.21502 3.20999 3.20298 3.22328 3.19062 3.23657C3.1693 3.25975 3.14975 3.28386 3.1305 3.30875C3.11607 3.32738 3.10124 3.34552 3.08594 3.36345C3.05502 3.40028 3.02693 3.43914 2.9987 3.47805C2.99072 3.48902 2.98267 3.49994 2.97459 3.51085C2.87157 3.65067 2.7789 3.79804 2.695 3.95001C2.69224 3.95499 2.68947 3.95996 2.68663 3.96509C2.58094 4.15601 2.49263 4.35423 2.42 4.56001C2.41746 4.56715 2.41492 4.5743 2.41239 4.58144C2.37222 4.6948 2.33592 4.80878 2.305 4.92501C2.30344 4.93086 2.30344 4.93086 2.30185 4.93682C2.22979 5.20825 2.18099 5.48535 2.155 5.76501C2.15442 5.77123 2.15384 5.77745 2.15325 5.78386C2.15167 5.80132 2.15018 5.81878 2.14875 5.83626C2.14835 5.8411 2.14795 5.84595 2.14753 5.85094C2.14107 5.93828 2.1478 6.02448 2.1543 6.11161C2.15532 6.12547 2.15632 6.13934 2.15733 6.1532C2.15952 6.18325 2.16173 6.2133 2.16396 6.24335C2.16726 6.28803 2.17054 6.33271 2.17381 6.37739C2.17931 6.45258 2.18483 6.52777 2.19037 6.60296C2.19586 6.67738 2.20133 6.75181 2.20678 6.82624C2.20712 6.83087 2.20746 6.83551 2.20781 6.84028C2.20954 6.86382 2.21126 6.88736 2.21299 6.9109C2.22519 7.07749 2.23743 7.24408 2.24967 7.41067C2.25264 7.45101 2.25561 7.49135 2.25857 7.53168C2.25912 7.53919 2.25912 7.53919 2.25969 7.54685C2.26824 7.66319 2.27678 7.77953 2.28532 7.89586C2.28587 7.90334 2.28587 7.90334 2.28643 7.91097C2.29479 8.02478 2.30314 8.13859 2.31149 8.25239C2.31184 8.25717 2.31219 8.26195 2.31255 8.26688C2.3157 8.30988 2.31886 8.35288 2.32201 8.39588C2.33022 8.50775 2.33843 8.61962 2.34666 8.73149C2.35182 8.8016 2.35697 8.87172 2.36211 8.94183C2.36537 8.98624 2.36864 9.03065 2.37191 9.07506C2.37409 9.10469 2.37627 9.13433 2.37844 9.16396C2.37968 9.18087 2.38092 9.19777 2.38217 9.21467C2.38352 9.23285 2.38485 9.25104 2.38617 9.26922C2.38657 9.27449 2.38696 9.27977 2.38736 9.2852C2.3928 9.36018 2.3928 9.36018 2.365 9.39501C2.19892 9.57938 1.80014 9.57968 1.57 9.60001C1.56569 9.60039 1.56137 9.60077 1.55693 9.60116C1.33049 9.62103 1.12192 9.62593 0.93 9.48501C0.927116 9.48293 0.924233 9.48085 0.921262 9.47871C0.848247 9.42565 0.784636 9.3611 0.731213 9.28844C0.725107 9.28015 0.718881 9.27196 0.712637 9.26378C0.677898 9.21748 0.649636 9.16769 0.621692 9.11708C0.61608 9.10696 0.61037 9.09691 0.60459 9.08688C0.543495 8.97781 0.499878 8.85807 0.46 8.74001C0.45831 8.73511 0.456619 8.7302 0.454878 8.72515C0.295489 8.26147 0.228965 7.7493 0.199062 7.11376C0.199064 7.1091 0.199065 7.10445 0.199066 7.09965C0.199616 6.68235 0.223284 6.22088 0.41 5.84001C0.411965 5.83598 0.41393 5.83196 0.415954 5.82781C0.508941 5.6394 0.650427 5.48961 0.851406 5.41927C0.886059 5.4085 0.920748 5.40179 0.956562 5.39626C0.962741 5.3953 0.962741 5.3953 0.969045 5.39432C0.996278 5.39043 1.02249 5.38946 1.05 5.39001C1.05065 5.3835 1.0513 5.377 1.05196 5.37029C1.0546 5.3467 1.05875 5.32367 1.06357 5.30044C1.06485 5.29418 1.06485 5.29418 1.06616 5.28779C1.06897 5.27415 1.07182 5.26051 1.07469 5.24688C1.07568 5.24214 1.07668 5.2374 1.0777 5.23251C1.17438 4.77432 1.33706 4.33686 1.66749 3.68772C1.67569 3.67385 1.68376 3.6599 1.69182 3.64595C1.72184 3.59404 1.75235 3.54242 1.78312 3.49095C1.78593 3.48624 1.78873 3.48154 1.79162 3.4767C1.83786 3.39965 1.88661 3.3242 1.9365 3.24947C1.94469 3.23719 1.95285 3.2249 1.96101 3.2126C1.9955 3.16075 2.03122 3.10995 2.06797 3.05968C2.07866 3.04497 2.08917 3.03015 2.09969 3.01532C2.16077 2.92966 2.22427 2.84631 2.29081 2.76483C2.30843 2.74323 2.32571 2.72139 2.34281 2.69938C2.36389 2.67231 2.38585 2.64614 2.4083 2.6202C2.42331 2.60285 2.43804 2.58533 2.4525 2.56751C2.47687 2.53751 2.50207 2.50825 2.5273 2.47898C2.53481 2.47023 2.54227 2.46144 2.54971 2.45263C2.57915 2.41784 2.60946 2.38411 2.6407 2.35093C2.65491 2.33584 2.66899 2.32073 2.6825 2.30501C2.70427 2.27977 2.72721 2.25561 2.75003 2.23131C2.7623 2.21824 2.77453 2.20514 2.78671 2.19198C2.84326 2.13113 2.90186 2.07238 2.96065 2.01371C2.97481 1.99958 2.98894 1.98543 3.00307 1.97127C3.01413 1.96019 3.0252 1.94913 3.03627 1.93806C3.04149 1.93285 3.04671 1.92763 3.05192 1.92241C3.07775 1.89653 3.10367 1.87102 3.13159 1.84737C3.14038 1.83968 3.14847 1.83155 3.15656 1.82313C3.1747 1.80471 3.19449 1.78876 3.21461 1.77257C3.23137 1.75889 3.24772 1.7448 3.26406 1.73063C3.29279 1.70583 3.32225 1.68216 3.35223 1.65888C3.36737 1.64711 3.38234 1.63515 3.39727 1.62312C3.46384 1.5695 3.53205 1.51815 3.601 1.46764C3.6167 1.45613 3.63234 1.44453 3.64791 1.43284C3.70144 1.39276 3.75635 1.35523 3.81221 1.31846C3.83016 1.30663 3.84789 1.29456 3.86545 1.28216C3.88985 1.26497 3.91478 1.24877 3.94 1.23282C3.94704 1.22836 3.94704 1.22836 3.95422 1.22381C4.04709 1.16512 4.14076 1.10794 4.23596 1.0531C4.2493 1.04541 4.26261 1.03769 4.27592 1.02995C4.65898 0.808104 5.06774 0.632212 6.12 0.340008C6.1244 0.339151 6.1288 0.338293 6.13333 0.33741C6.32546 0.299987 6.51864 0.270632 6.71344 0.251258C6.71814 0.250783 6.72284 0.250307 6.72769 0.249817C6.76162 0.246432 6.79558 0.243508 6.82958 0.240831C6.83689 0.240253 6.8442 0.239669 6.85151 0.23908C7.00613 0.226646 7.15996 0.222503 7.31505 0.223073Z" fill="#5471DB"/>
<path d="M9.23875 10.2334C9.24656 10.2334 9.24656 10.2334 9.25453 10.2333C9.37305 10.2344 9.47564 10.2825 9.56094 10.3637C9.64742 10.4535 9.68656 10.5581 9.68719 10.6812C9.68724 10.6876 9.68729 10.6939 9.68734 10.7004C9.68624 10.8185 9.63591 10.917 9.555 11C9.55208 11.0033 9.54916 11.0066 9.54615 11.0099C9.48927 11.0724 9.40101 11.1088 9.32 11.125C9.31549 11.1259 9.31098 11.1268 9.30633 11.1278C9.19127 11.1434 9.07412 11.1192 8.98 11.05C8.9668 11.0388 8.95403 11.0274 8.94145 11.0156C8.93011 11.0048 8.93011 11.0048 8.9174 10.9953C8.84728 10.937 8.80313 10.8311 8.7916 10.7429C8.78082 10.622 8.80279 10.5045 8.88008 10.408C8.8866 10.4002 8.89325 10.3926 8.9 10.385C8.9023 10.3824 8.90459 10.3798 8.90695 10.3771C8.99481 10.2796 9.10809 10.2341 9.23875 10.2334Z" fill="#242424"/>
<path d="M7.67063 10.2341C7.67933 10.234 7.67933 10.234 7.6882 10.2339C7.80764 10.2337 7.90859 10.2786 7.995 10.36C8.00767 10.3727 8.01908 10.3858 8.03 10.4C8.03285 10.4037 8.0357 10.4073 8.03863 10.4111C8.07506 10.4605 8.10255 10.5148 8.115 10.575C8.11653 10.5817 8.11653 10.5817 8.11809 10.5886C8.14108 10.7034 8.12086 10.8214 8.05959 10.9209C8.04295 10.9454 8.02455 10.9679 8.005 10.99C8.0023 10.9931 7.9996 10.9962 7.99682 10.9995C7.92013 11.0821 7.80672 11.1285 7.69541 11.1329C7.56147 11.1351 7.44978 11.0872 7.35344 10.9953C7.26513 10.9022 7.22526 10.7861 7.22844 10.659C7.23455 10.5357 7.28635 10.4308 7.375 10.345C7.4592 10.2711 7.55948 10.2341 7.67063 10.2341Z" fill="#242424"/>
<path d="M6.37416 10.3095C6.38671 10.3192 6.39838 10.3293 6.41 10.34C6.41451 10.3441 6.41902 10.3482 6.42367 10.3525C6.5141 10.4387 6.56297 10.5454 6.5671 10.67C6.5681 10.7956 6.52005 10.9087 6.435 11C6.34963 11.0851 6.23452 11.1321 6.11437 11.1319C5.99688 11.1316 5.8977 11.087 5.81 11.01C5.80411 11.0049 5.80411 11.0049 5.7981 10.9996C5.72593 10.9321 5.67532 10.8297 5.66911 10.7309C5.66767 10.6627 5.66725 10.6 5.69 10.535C5.69175 10.5298 5.69351 10.5246 5.69531 10.5193C5.73753 10.4073 5.82529 10.3186 5.93232 10.2675C6.07657 10.2062 6.24454 10.2223 6.37416 10.3095Z" fill="#242424"/>
</g>
<defs>
<clipPath id="clip0_2_971">
<rect width="15" height="15" fill="white"/>
</clipPath>
</defs>
</svg>
