<svg width="16" height="16" viewBox="0 0 16 16" fill="none" xmlns="http://www.w3.org/2000/svg">
<circle cx="8" cy="8" r="7.5" stroke="#666666"/>
<path d="M8.05431 3.00377C8.2476 3.05393 8.31927 3.11071 8.45548 3.25088C8.49717 3.29372 8.53886 3.33656 8.58182 3.3807C8.74921 3.56457 8.90806 3.75422 9.06588 3.94588C9.20247 4.10678 9.3453 4.25986 9.49151 4.41243C9.72153 4.65273 9.9365 4.90131 10.1481 5.15727C10.3159 5.35341 10.493 5.54035 10.6724 5.72646C10.9687 6.03505 10.9687 6.03505 11 6.2696C10.9764 6.45991 10.9764 6.45991 10.868 6.60203C10.655 6.76069 10.517 6.75347 10.2576 6.73881C10.2176 6.73763 10.1776 6.73644 10.1364 6.73522C10.0384 6.73215 9.94041 6.72744 9.84248 6.72241C9.84296 6.77115 9.84344 6.8199 9.84393 6.87012C9.84826 7.32973 9.85155 7.78933 9.85367 8.24895C9.8548 8.48524 9.85632 8.72152 9.85877 8.9578C9.86112 9.18587 9.86241 9.41392 9.86297 9.642C9.86337 9.72897 9.86415 9.81594 9.86531 9.90291C9.86688 10.0248 9.8671 10.1467 9.867 10.2686C9.86777 10.3045 9.86855 10.3404 9.86935 10.3773C9.86716 10.6249 9.8055 10.7483 9.6265 10.9224C9.48811 10.9896 9.38792 10.9826 9.23296 10.9842C9.17331 10.9848 9.11365 10.9855 9.05218 10.9862C8.98745 10.9866 8.92271 10.987 8.85601 10.9874C8.75653 10.988 8.75653 10.988 8.65504 10.9887C8.51446 10.9894 8.37389 10.9899 8.23332 10.9904C8.01822 10.9911 7.80316 10.9936 7.58808 10.9959C7.45165 10.9964 7.31522 10.9969 7.17879 10.9972C7.08218 10.9986 7.08218 10.9986 6.98361 11C6.53669 10.9989 6.53669 10.9989 6.32042 10.875C6.15308 10.6822 6.16339 10.5287 6.16468 10.2865C6.16467 10.2481 6.16466 10.2097 6.16466 10.1701C6.16469 10.0428 6.16511 9.91555 6.16554 9.78829C6.16564 9.70016 6.16571 9.61203 6.16577 9.52391C6.16597 9.29174 6.1665 9.05957 6.1671 8.8274C6.16765 8.59057 6.1679 8.35375 6.16817 8.11692C6.16875 7.65208 6.16967 7.18725 6.17081 6.72241C6.11158 6.72545 6.05234 6.7285 5.99132 6.73164C5.91279 6.7341 5.83426 6.73649 5.75572 6.73881C5.71678 6.74101 5.67784 6.74321 5.63771 6.74548C5.41245 6.75048 5.331 6.7406 5.14615 6.60114C5.03691 6.45991 5.03691 6.45991 5 6.28375C5.0502 6.02353 5.17388 5.89708 5.35751 5.70851C5.38958 5.67412 5.42165 5.63972 5.45469 5.60428C5.54862 5.50376 5.64363 5.4043 5.73885 5.30492C5.82452 5.21321 5.91004 5.12136 5.99532 5.0293C6.05264 4.96789 6.05264 4.96789 6.11112 4.90523C6.23279 4.77113 6.34881 4.63354 6.46441 4.49446C6.67519 4.24124 6.89653 3.99982 7.12353 3.76029C7.23711 3.63942 7.34725 3.51648 7.45657 3.39197C7.8202 2.9905 7.8202 2.9905 8.05431 3.00377Z" fill="#666666"/>
<path d="M7.05798 12.0054C7.13243 12.0051 7.20688 12.0049 7.28358 12.0046C7.44091 12.0044 7.59811 12.0048 7.75542 12.0061C7.95656 12.0078 8.15759 12.0068 8.35872 12.0051C8.55121 12.0038 8.74369 12.0047 8.93618 12.0054C9.0082 12.0048 9.08023 12.0042 9.15444 12.0036C9.70966 12.0112 9.70966 12.0112 9.89316 12.1777C9.99266 12.3326 9.99266 12.3326 10 12.5383C9.91741 12.7867 9.87196 12.8391 9.6405 12.9679C9.39483 13.0027 9.15101 13.0003 8.90316 12.9986C8.83132 12.9988 8.75947 12.999 8.68545 12.9993C8.5337 12.9994 8.38194 12.999 8.23019 12.998C7.99792 12.9968 7.76575 12.998 7.53349 12.9995C7.38599 12.9993 7.23849 12.999 7.09099 12.9986C7.02153 12.9991 6.95207 12.9995 6.88051 13C6.40166 12.9946 6.40166 12.9946 6.16496 12.8629C6.01541 12.683 5.99325 12.5637 6.00149 12.3326C6.25299 11.9411 6.62515 12.0019 7.05798 12.0054Z" fill="#666666"/>
</svg>
